<?xml version="1.0" encoding="UTF-8"?>
<svg width="38px" height="22px" viewBox="0 0 38 22" version="1.1" xmlns="http://www.w3.org/2000/svg" xmlns:xlink="http://www.w3.org/1999/xlink">
    <!-- Generator: sketchtool 50.2 (55047) - http://www.bohemiancoding.com/sketch -->
    <title>3269E9DF-1749-4FBE-BCC5-80E800D33176</title>
    <desc>Created with sketchtool.</desc>
    <defs>
        <path d="M10.6816747,7.74860561 C10.6816747,8.1876537 10.7321003,8.54363865 10.8203453,8.80469427 C10.9211966,9.0657499 11.0472609,9.35053785 11.2237507,9.65905814 C11.2867829,9.75398746 11.3119957,9.84891677 11.3119957,9.93197993 C11.3119957,10.0506416 11.2363572,10.1693032 11.0724737,10.2879649 L10.2782692,10.7863438 C10.1648114,10.8575408 10.0513536,10.8931393 9.95050224,10.8931393 C9.82443803,10.8931393 9.69837383,10.8338085 9.57230962,10.727013 C9.39581973,10.5490205 9.24454268,10.3591619 9.11847847,10.1693032 C8.99241426,9.96757842 8.86635005,9.74212129 8.72767942,9.4691995 C7.7443786,10.5608867 6.50894935,11.1067302 5.0213917,11.1067302 C3.96245235,11.1067302 3.11782215,10.8219423 2.50010753,10.2523664 C1.88239291,9.68279047 1.56723239,8.92335592 1.56723239,7.97406274 C1.56723239,6.96543873 1.94542501,6.14667336 2.71441668,5.52963279 C3.48340835,4.91259222 4.50452844,4.60407194 5.80298979,4.60407194 C6.2316081,4.60407194 6.67283283,4.63967043 7.1392704,4.69900126 C7.60570797,4.75833208 8.08475196,4.8532614 8.58900879,4.96005688 L8.58900879,4.09382685 C8.58900879,3.19199833 8.38730606,2.56309159 7.99650701,2.19524049 C7.59310155,1.82738938 6.91235482,1.64939691 5.94166042,1.64939691 C5.50043569,1.64939691 5.04660454,1.69686156 4.58016697,1.80365705 C4.1137294,1.91045253 3.65989825,2.04098034 3.21867352,2.20710665 C3.01697078,2.2901698 2.86569373,2.33763446 2.77744879,2.36136679 C2.68920384,2.38509912 2.62617174,2.39696529 2.57574605,2.39696529 C2.39925616,2.39696529 2.31101122,2.27830364 2.31101122,2.02911418 L2.31101122,1.4476721 C2.31101122,1.25781347 2.33622406,1.11541949 2.39925616,1.03235634 C2.46228827,0.949293183 2.57574605,0.86623003 2.75223595,0.783166876 C3.19346068,0.56957591 3.72293035,0.391583438 4.34064497,0.249189461 C4.95835959,0.0949293183 5.61389348,0.0237323296 6.30724662,0.0237323296 C7.8074107,0.0237323296 8.90416931,0.344118779 9.61012888,0.984891677 C10.303482,1.62566458 10.6564618,2.59869009 10.6564618,3.90396822 L10.6564618,7.74860561 L10.6816747,7.74860561 Z M5.56346779,9.55226265 C5.97947968,9.55226265 6.40809799,9.48106567 6.86192914,9.33867169 C7.31576029,9.19627771 7.71916575,8.93522209 8.05953912,8.57923714 C8.26124185,8.35378001 8.4125189,8.10459055 8.48815743,7.8198026 C8.56379595,7.53501464 8.61422163,7.19089586 8.61422163,6.78744626 L8.61422163,6.28906734 C8.24863543,6.20600418 7.85783638,6.1348072 7.45443092,6.08734254 C7.05102545,6.03987788 6.6602264,6.01614555 6.26942736,6.01614555 C5.42479716,6.01614555 4.80708254,6.17040569 4.39107065,6.49079214 C3.97505877,6.81117859 3.77335603,7.26209285 3.77335603,7.85540109 C3.77335603,8.41311083 3.92463308,8.8284266 4.2397936,9.11321456 C4.5423477,9.40986868 4.98357243,9.55226265 5.56346779,9.55226265 Z M15.6864237,10.8338085 C15.4595081,10.8338085 15.3082311,10.79821 15.2073797,10.7151468 C15.1065284,10.6439498 15.0182834,10.4778235 14.9426449,10.2523664 L11.980136,1.079821 C11.9044975,0.8424977 11.8666782,0.688237558 11.8666782,0.605174404 C11.8666782,0.415315768 11.9675296,0.308520284 12.1692323,0.308520284 L13.4046616,0.308520284 C13.6441835,0.308520284 13.808067,0.344118779 13.896312,0.427181932 C13.9971633,0.498378921 14.0728019,0.664505228 14.1484404,0.889962359 L16.2663191,8.74536345 L18.2329207,0.889962359 C18.2959528,0.652639063 18.3715914,0.498378921 18.4724427,0.427181932 C18.5732941,0.355984944 18.749784,0.308520284 18.9766996,0.308520284 L19.9852132,0.308520284 C20.2247352,0.308520284 20.3886187,0.344118779 20.4894701,0.427181932 C20.5903214,0.498378921 20.6785664,0.664505228 20.7289921,0.889962359 L22.7208065,8.84029277 L24.9017174,0.889962359 C24.9773559,0.652639063 25.0656008,0.498378921 25.1538458,0.427181932 C25.2546971,0.355984944 25.4185806,0.308520284 25.6454962,0.308520284 L26.8178933,0.308520284 C27.0195961,0.308520284 27.1330538,0.403449603 27.1330538,0.605174404 C27.1330538,0.664505228 27.1204474,0.723836052 27.107841,0.795033041 C27.0952346,0.86623003 27.0700217,0.961159348 27.0195961,1.09168716 L23.9814486,10.2642325 C23.9058101,10.5015558 23.8175652,10.655816 23.7167138,10.727013 C23.6158624,10.79821 23.451979,10.8456746 23.2376698,10.8456746 L22.1535176,10.8456746 C21.9139956,10.8456746 21.7501121,10.8100761 21.6492608,10.727013 C21.5484094,10.6439498 21.4601645,10.4896897 21.4097388,10.2523664 L19.4557436,2.59869009 L17.5143547,10.2405002 C17.4513226,10.4778235 17.3756841,10.6320837 17.2748327,10.7151468 C17.1739814,10.79821 16.9974915,10.8338085 16.7705759,10.8338085 L15.6864237,10.8338085 Z M31.8856745,11.1541949 C31.2301406,11.1541949 30.5746067,11.0829979 29.9442857,10.9406039 C29.3139646,10.79821 28.8223142,10.6439498 28.4945473,10.4659573 C28.2928446,10.3591619 28.1541739,10.2405002 28.1037482,10.1337047 C28.0533226,10.0269092 28.0281097,9.9082476 28.0281097,9.80145212 L28.0281097,9.19627771 C28.0281097,8.94708825 28.1289611,8.8284266 28.3180574,8.8284266 C28.3936959,8.8284266 28.4693344,8.84029277 28.544973,8.8640251 C28.6206115,8.88775743 28.7340693,8.93522209 28.8601335,8.98268674 C29.2887518,9.16067922 29.7551894,9.30307319 30.2468398,9.39800251 C30.7510966,9.49293183 31.242747,9.54039649 31.7470039,9.54039649 C32.5412084,9.54039649 33.158923,9.40986868 33.5875413,9.14881305 C34.0161596,8.88775743 34.2430752,8.50804015 34.2430752,8.0215274 C34.2430752,7.68927478 34.1296174,7.41635299 33.9027018,7.19089586 C33.6757863,6.96543873 33.2471679,6.76371393 32.6294533,6.57385529 L30.8015223,6.03987788 C29.8812536,5.76695609 29.2005069,5.36350648 28.784495,4.82952907 C28.3684831,4.30741782 28.1541739,3.72597574 28.1541739,3.10893517 C28.1541739,2.61055625 28.2676317,2.17150816 28.4945473,1.79179088 C28.7214629,1.41207361 29.024017,1.079821 29.4022096,0.81876537 C29.7804022,0.54584358 30.2090205,0.344118779 30.7132774,0.201724801 C31.2175342,0.0593308239 31.7470039,0 32.3016864,0 C32.5790276,0 32.8689753,0.0118661648 33.1463166,0.0474646592 C33.4362643,0.0830631535 33.7009991,0.130527813 33.9657339,0.177992472 C34.2178623,0.237323296 34.4573843,0.29665412 34.6842999,0.367851108 C34.9112155,0.439048097 35.0877054,0.510245086 35.2137696,0.581442075 C35.3902595,0.676371393 35.5163237,0.771300711 35.5919622,0.878096194 C35.6676007,0.973025513 35.70542,1.10355333 35.70542,1.26967963 L35.70542,1.82738938 C35.70542,2.07657884 35.6045686,2.20710665 35.4154723,2.20710665 C35.314621,2.20710665 35.1507375,2.15964199 34.9364283,2.06471267 C34.2178623,1.75619239 33.4110514,1.60193225 32.5159955,1.60193225 C31.7974295,1.60193225 31.2301406,1.70872773 30.8393416,1.93418486 C30.4485425,2.15964199 30.2468398,2.50376077 30.2468398,2.99027353 C30.2468398,3.32252614 30.372904,3.6073141 30.6250324,3.83277123 C30.8771608,4.05822836 31.3435984,4.28368549 32.0117387,4.48541029 L33.8018505,5.01938771 C34.7095128,5.2923095 35.3650466,5.67202677 35.7558457,6.15853953 C36.1466447,6.64505228 36.335741,7.20276203 36.335741,7.8198026 C36.335741,8.33004768 36.2222833,8.79282811 36.0079741,9.19627771 C35.7810585,9.59972731 35.4785044,9.95571226 35.0877054,10.2405002 C34.6969063,10.5371543 34.2304688,10.7507453 33.6883927,10.9050054 C33.1211037,11.0711317 32.528602,11.1541949 31.8856745,11.1541949 Z M34.268288,16.921151 C30.1207756,19.804629 24.0949064,21.3353643 18.9136675,21.3353643 C11.6523691,21.3353643 5.10963664,18.8078712 0.167919675,14.6072489 C-0.222879371,14.2749962 0.130100413,13.824082 0.596537984,14.0851376 C5.94166042,17.0042141 12.5348185,18.7722727 19.3548922,18.7722727 C23.9562358,18.7722727 29.0114105,17.8704442 33.6631798,16.0193225 C34.356533,15.7226683 34.9490348,16.4465044 34.268288,16.921151 Z M35.9953677,15.0700293 C35.465898,14.4292564 32.4907827,14.761509 31.1418957,14.9157691 C30.7384902,14.9632338 30.6754581,14.6309812 31.0410443,14.3817917 C33.4110514,12.815458 37.3064355,13.2663722 37.7602666,13.7884835 C38.2140978,14.3224609 37.6342024,17.9891058 35.4154723,19.7452982 C35.075099,20.01822 34.747332,19.875826 34.8986091,19.5198411 C35.4028659,18.3450908 36.5248374,15.698936 35.9953677,15.0700293 Z" id="path-1"></path>
    </defs>
    <g id="Internal-/-Dashboard" stroke="none" stroke-width="1" fill="none" fill-rule="evenodd">
        <g id="Current-Dashboard-Dropdown" transform="translate(-442.000000, -199.000000)">
            <g id="Main-Navigation" transform="translate(0.000000, 69.000000)">
                <g id="Training" transform="translate(174.000000, 0.000000)">
                    <g id="Drodown" transform="translate(0.000000, 85.000000)">
                        <g id="Categories" transform="translate(0.000000, 33.000000)">
                            <g id="AWS-Cat" transform="translate(266.000000, 0.000000)">
                                <g id="Icon-/-Categories-/-AWS">
                                    <g id="AWS" transform="translate(2.086538, 12.519231)">
                                        <mask id="mask-2" fill="white">
                                            <use xlink:href="#path-1"></use>
                                        </mask>
                                        <use id="Mask" fill="#252F3E" fill-rule="nonzero" xlink:href="#path-1"></use>
                                        <g id="🎨-Colors-/-White" mask="url(#mask-2)" fill="#FFFFFF">
                                            <g transform="translate(-3.445804, -6.564727)" id="Rectangle">
                                                <rect x="0" y="0" width="41.1288831" height="39.1225962"></rect>
                                            </g>
                                        </g>
                                    </g>
                                </g>
                            </g>
                        </g>
                    </g>
                </g>
            </g>
        </g>
    </g>
</svg>