<?xml version="1.0" encoding="UTF-8"?>
<svg width="38px" height="30px" viewBox="0 0 38 30" version="1.1" xmlns="http://www.w3.org/2000/svg" xmlns:xlink="http://www.w3.org/1999/xlink">
    <!-- Generator: sketchtool 50.2 (55047) - http://www.bohemiancoding.com/sketch -->
    <title>59DAFA80-345E-43CA-9675-746CF271F557</title>
    <desc>Created with sketchtool.</desc>
    <defs>
        <path d="M29.3236949,21.9225481 L28.5947748,21.9225481 L28.5947748,20.0303866 L29.3236949,20.0303866 C32.7403865,20.0303866 35.6269102,17.4813876 35.6269102,14.4646263 C35.5992112,12.9660982 34.9091668,11.5271546 33.7336617,10.5282923 C32.3331631,9.31079689 30.4666417,8.72902644 28.5976905,8.92936191 L27.7944205,9.00630575 L27.5592223,8.26736344 C26.4799346,4.90810825 23.127388,3.74503652 20.2826557,4.0814312 L20.0848754,4.08659207 L19.8185766,4.08659207 L19.5333259,3.85388389 C17.2056409,1.9138671 13.9770108,1.35274012 11.1031217,2.38116014 C8.08344864,3.47526393 5.91904184,6.07211832 5.45690648,9.15690923 L5.37672527,9.59652125 L5.00497601,9.81937687 C2.53393681,11.2784947 1.47943237,13.5680429 2.17968163,15.9462642 C2.91686284,18.3901693 5.28099376,20.0702661 7.91482512,20.0303866 L8.65540796,20.0191266 L8.65540796,21.9037813 L7.9396084,21.9159797 C4.43544642,21.9816635 1.26512985,19.7334022 0.289348789,16.4576592 C-0.77098701,12.8450524 1.25346713,9.98264793 3.59281477,8.43204201 C4.2969516,4.86729048 6.89044938,1.89228529 10.4266838,0.621773695 C13.8283111,-0.594783387 17.6454228,0.00106215634 20.4712031,2.17097211 C23.7858458,1.92794219 27.6141343,3.3270063 29.1623606,7.01890282 C31.2835182,6.99356765 33.420226,7.74752339 35.0277378,9.13391991 C36.6124102,10.477622 37.5454279,12.4223305 37.5833318,14.4646263 C37.5687534,18.5140301 33.7866299,21.9225481 29.3236949,21.9225481 M26.2395367,26.2953506 C26.0859776,26.9170005 24.3001233,27.5883824 21.6833,27.5883824 C19.0601595,27.5883824 17.276735,26.9198155 17.1290071,26.3005115 L17.1178304,26.2559404 L17.1178304,23.9110301 C18.1844835,24.4360311 19.7628385,24.8085518 21.6371351,24.8085518 C23.5367009,24.8085518 25.1592771,24.4125726 26.2453681,23.8650515 L26.2497416,26.2559404 L26.2395367,26.2953506 Z M21.6735811,13.2674459 C24.1703755,13.2674459 25.9615752,13.8975408 26.200175,14.511684 C25.8245382,14.8485478 24.3064406,15.6390988 21.6735811,15.6390988 C19.0363481,15.6390988 17.5167927,14.8476095 17.1445574,14.5121532 C17.3744103,13.8876883 19.1349953,13.2674459 21.6735811,13.2674459 Z M26.2341913,18.2626959 C26.2346773,18.26035 26.2351632,18.2594117 26.2356492,18.2565967 L26.2356492,18.2631651 L26.2341913,18.2626959 Z M26.2424524,22.2135741 L26.2429384,22.2501693 L26.2341913,22.249231 C26.2361351,22.2337484 26.2400227,22.2262417 26.2424524,22.2135741 Z M17.1178304,19.9263717 C18.1844835,20.4504343 19.7633245,20.8224859 21.6371351,20.8224859 C23.5328134,20.8224859 25.1529598,20.4279141 26.2385648,19.8822698 L26.2424524,22.1647804 C25.9892742,22.4777166 24.467289,23.4010427 21.6371351,23.4010427 C18.9255523,23.4010427 17.4356395,22.5565372 17.1178304,22.2234267 L17.1178304,19.9263717 Z M21.6735811,17.046608 C23.5503074,17.046608 25.1534458,16.6693955 26.2322475,16.1472096 L26.2356492,18.1871596 C25.9620611,18.5085408 24.4410478,19.4149767 21.6371351,19.4149767 C18.9250663,19.4149767 17.4356395,18.5728171 17.1178304,18.2401757 L17.1178304,16.1504938 C18.1951743,16.6712722 19.7953969,17.046608 21.6735811,17.046608 Z M27.669678,14.3925149 C27.4111543,12.5294419 24.3292801,11.8599367 21.6735811,11.8599367 C18.8997971,11.8599367 15.6599901,12.5909032 15.6599901,14.6496199 L15.6599901,18.3096129 L15.6473555,18.3091437 L15.6454117,18.3715433 L15.651729,18.4545863 C15.6531869,18.4653772 15.6580463,18.4761681 15.6599901,18.486959 L15.6599901,22.2923946 L15.6473555,22.2919254 L15.6454117,22.354325 L15.651729,22.437368 C15.6531869,22.4486281 15.6580463,22.459419 15.6599901,22.4702099 L15.6599901,26.2892514 C15.6599901,26.4126431 15.679428,26.5346272 15.7173319,26.6514505 C16.1658607,28.3789334 19.0864006,28.9958916 21.6833,28.9958916 C24.2714524,28.9958916 27.1885907,28.3798717 27.6487823,26.6542655 C27.687658,26.5365039 27.7075819,26.4135814 27.7075819,26.2892514 L27.7075819,14.4403702 L27.669678,14.3925149 Z M10.8255003,26.9666856 L14.0380943,26.9666856 L14.0380943,13.6633782 L10.8255003,13.6633782 L10.8255003,26.9666856 Z M9.36766011,28.3741948 L15.4959345,28.3741948 L15.4959345,12.2558691 L9.36766011,12.2558691 L9.36766011,28.3741948 Z M12.4351503,15.4627848 C12.2524344,15.4627848 12.1047066,15.6054124 12.1047066,15.7818202 C12.1047066,15.9577589 12.2524344,16.1003865 12.4351503,16.1003865 C12.6173804,16.1003865 12.7655941,15.9577589 12.7655941,15.7818202 C12.7704536,15.6054124 12.6275853,15.4585623 12.4453552,15.4534014 C12.4419536,15.4529323 12.438552,15.4529323 12.4351503,15.4529323 L12.4351503,15.4627848 Z M12.4351503,16.588323 C11.9773885,16.588323 11.6061252,16.2303465 11.6061252,15.7879195 C11.6061252,15.3459616 11.9773885,14.9875159 12.4351503,14.9875159 C12.8924262,14.9875159 13.2641755,15.3459616 13.2641755,15.7879195 C13.2622317,16.2294082 12.8919403,16.5869155 12.4351503,16.588323 Z" id="path-1"></path>
    </defs>
    <g id="Internal-/-Dashboard" stroke="none" stroke-width="1" fill="none" fill-rule="evenodd">
        <g id="Current-Dashboard-Dropdown" transform="translate(-1138.000000, -193.000000)">
            <g id="Main-Navigation" transform="translate(0.000000, 69.000000)">
                <g id="Training" transform="translate(174.000000, 0.000000)">
                    <g id="Drodown" transform="translate(0.000000, 85.000000)">
                        <g id="Categories" transform="translate(0.000000, 33.000000)">
                            <g id="BigData-Cat" transform="translate(955.000000, 0.000000)">
                                <g id="Icon-/-Category-/-Big-Data-Bold" transform="translate(7.000000, 0.000000)">
                                    <g id="Library" transform="translate(2.086538, 6.259615)">
                                        <mask id="mask-2" fill="white">
                                            <use xlink:href="#path-1"></use>
                                        </mask>
                                        <use id="Mask" fill="#FFFFFF" xlink:href="#path-1"></use>
                                        <g id="🎨-Colors-/-White" mask="url(#mask-2)" fill="#FFFFFF">
                                            <g transform="translate(-1.722902, -4.926282)" id="Rectangle">
                                                <rect x="0" y="0" width="41.1288831" height="39.1225962"></rect>
                                            </g>
                                        </g>
                                    </g>
                                </g>
                            </g>
                        </g>
                    </g>
                </g>
            </g>
        </g>
    </g>
</svg>