<?xml version="1.0" encoding="UTF-8"?>
<svg width="42px" height="28px" viewBox="0 0 42 28" version="1.1" xmlns="http://www.w3.org/2000/svg" xmlns:xlink="http://www.w3.org/1999/xlink">
    <!-- Generator: sketchtool 50.2 (55047) - http://www.bohemiancoding.com/sketch -->
    <title>3D00F1E2-5487-409E-89BB-B509BA6E6620</title>
    <desc>Created with sketchtool.</desc>
    <defs>
        <path d="M33.7668874,10.4865991 C38.3006623,10.7925594 41.8609272,14.5197117 41.8609272,19.1369303 C41.8609272,23.9488508 37.9668874,27.8428905 33.1549669,27.8428905 L27.1748344,27.8428905 L27.1748344,27.7872614 L27.1748344,24.3660693 L33.1549669,24.3660693 C36.0476821,24.3660693 38.384106,22.0296455 38.384106,19.1369303 C38.384106,16.244215 36.0476821,13.9077912 33.1549669,13.9077912 L30.5403974,13.9077912 L30.5403974,13.0455395 C30.5403974,7.76077132 26.2569536,3.44951304 20.9443709,3.44951304 C16.5496689,3.44951304 12.8781457,6.39785741 11.7099338,10.43097 L10.4582781,10.43097 C6.61986755,10.43097 3.47682119,13.5462018 3.47682119,17.4124269 C3.47682119,20.8892481 6.03576159,23.7819634 9.37350993,24.3104402 L9.37350993,27.815076 C4.11655629,27.2865991 0,22.8084534 0,17.4124269 C0,12.0164005 4.08874172,7.5938839 9.31788079,7.03759251 C11.4874172,2.86540708 15.8821192,0.000506415082 20.9165563,0.000506415082 C27.2860927,-0.055122724 32.5708609,4.47865211 33.7668874,10.4865991 Z M16.4662252,24.3104402 L19.9986755,24.3104402 L19.9986755,27.8428905 L16.4662252,27.8428905 L16.4662252,24.3104402 Z M21.6675497,24.3104402 L25.2,24.3104402 L25.2,27.8428905 L21.6675497,27.8428905 L21.6675497,24.3104402 Z M11.2649007,24.3104402 L14.797351,24.3104402 L14.797351,27.8428905 L11.2649007,27.8428905 L11.2649007,24.3104402 Z" id="path-1"></path>
    </defs>
    <g id="Internal-/-Dashboard" stroke="none" stroke-width="1" fill="none" fill-rule="evenodd">
        <g id="Current-Dashboard-Dropdown" transform="translate(-359.000000, -194.000000)">
            <g id="Main-Navigation" transform="translate(0.000000, 69.000000)">
                <g id="Training" transform="translate(174.000000, 0.000000)">
                    <g id="Drodown" transform="translate(0.000000, 85.000000)">
                        <g id="Categories" transform="translate(0.000000, 33.000000)">
                            <g id="Cloud-Cat" transform="translate(185.000000, 0.000000)">
                                <g id="Icon-/-Category-/-Cloud">
                                    <g id="Library" transform="translate(0.000000, 7.000000)">
                                        <mask id="mask-2" fill="white">
                                            <use xlink:href="#path-1"></use>
                                        </mask>
                                        <use id="Mask" fill="#182B37" fill-rule="nonzero" xlink:href="#path-1"></use>
                                        <g id="🎨-Colors-/-White" mask="url(#mask-2)" fill="#FFFFFF">
                                            <g transform="translate(0.000000, -7.000000)" id="Rectangle">
                                                <rect x="0" y="0" width="41.7613636" height="41.7613636"></rect>
                                            </g>
                                        </g>
                                    </g>
                                </g>
                            </g>
                        </g>
                    </g>
                </g>
            </g>
        </g>
    </g>
</svg>