<?xml version="1.0" encoding="UTF-8"?>
<svg width="38px" height="26px" viewBox="0 0 38 26" version="1.1" xmlns="http://www.w3.org/2000/svg" xmlns:xlink="http://www.w3.org/1999/xlink">
    <!-- Generator: sketchtool 50.2 (55047) - http://www.bohemiancoding.com/sketch -->
    <title>FCA880BA-DF03-4688-AAF7-1FEA23E7D96A</title>
    <desc>Created with sketchtool.</desc>
    <defs>
        <path d="M5.93520643,8.47002067 L5.93520643,10.1767529 L7.61925148,10.1767529 C7.76262875,10.1767529 7.87947356,10.2851984 7.87947356,10.4193283 C7.87947356,10.5529826 7.76262875,10.6619038 7.61925148,10.6619038 L3.80113026,10.6619038 C3.65673251,10.6619038 3.54039794,10.5529826 3.54039794,10.4193283 C3.54039794,10.2851984 3.65673251,10.1767529 3.80113026,10.1767529 L5.41476227,10.1767529 L5.41476227,8.47002067 L0.639380958,8.47002067 C0.284764594,8.46478866 5.10239373e-05,8.19510185 5.10239373e-05,7.86453337 L5.10239373e-05,7.01789754 L11.427372,7.01789754 L11.427372,7.86453337 C11.427372,8.19938259 11.1360253,8.47002067 10.7773271,8.47002067 L10.7701837,8.47002067 L5.93520643,8.47002067 Z M10.7808477,-2.84217094e-14 C11.1380153,0.00190255242 11.427321,0.272540634 11.427321,0.605487307 L11.427321,6.53241373 L0,6.53241373 L0,0.605487307 C0,0.27111372 0.290836443,-2.84217094e-14 0.650044961,-2.84217094e-14 L10.7808477,-2.84217094e-14 Z M5.71182364,17.4908778 L5.71182364,17.5037201 C6.23481899,17.5037201 6.66086887,17.8956459 6.6690327,18.3831749 C6.6690327,18.8764116 6.24043163,19.275472 5.71182364,19.275472 C5.18321565,19.275472 4.75461457,18.8764116 4.75461457,18.3831749 C4.75461457,17.8904138 5.18321565,17.4908778 5.71182364,17.4908778 Z M5.71182364,19.7701356 C4.8974816,19.7701356 4.23723185,19.1556112 4.23723185,18.3960172 C4.23723185,17.6373744 4.8974816,17.0218987 5.71182364,17.0218987 C6.52616568,17.0218987 7.18590518,17.6373744 7.18590518,18.3960172 C7.18437447,19.1546599 6.5251452,19.7687087 5.71182364,19.7701356 Z M5.67345364,12.0298389 C5.53058661,12.0298389 5.41476227,11.9218691 5.41476227,11.7891661 L5.41476227,11.6360106 C5.41476227,11.5018806 5.53160709,11.3934352 5.67498435,11.3934352 C5.81887186,11.3934352 5.93520643,11.5018806 5.93520643,11.6360106 L5.93520643,11.7891661 C5.93724739,11.9218691 5.82295377,12.0312659 5.68059699,12.0331684 L5.67345364,12.0331684 L5.67345364,12.0298389 Z M5.67345364,12.9092938 C5.53058661,12.9092938 5.41476227,12.8013239 5.41476227,12.6681453 L5.41476227,12.5154654 C5.41476227,12.3813355 5.53160709,12.2724144 5.67498435,12.2724144 C5.81887186,12.2724144 5.93520643,12.3813355 5.93520643,12.5154654 L5.93520643,12.6681453 C5.93520643,12.8013239 5.8193821,12.9092938 5.67702531,12.9092938 L5.67345364,12.9092938 Z M5.67345364,13.788273 C5.53058661,13.788273 5.41476227,13.6807788 5.41476227,13.5476001 L5.41476227,13.3944447 C5.41476227,13.2603147 5.53160709,13.1518692 5.67498435,13.1518692 C5.81887186,13.1518692 5.93520643,13.2603147 5.93520643,13.3944447 L5.93520643,13.5476001 C5.93520643,13.6807788 5.8193821,13.788273 5.67702531,13.788273 L5.67345364,13.788273 Z M5.67345364,14.6677279 C5.53058661,14.6677279 5.41476227,14.559758 5.41476227,14.4265793 L5.41476227,14.2734239 C5.41476227,14.1397696 5.53160709,14.0313241 5.67498435,14.0313241 C5.81887186,14.0313241 5.93520643,14.1397696 5.93520643,14.2734239 L5.93520643,14.4265793 C5.93520643,14.559758 5.8193821,14.6677279 5.67702531,14.6677279 L5.67345364,14.6677279 Z M5.67345364,15.5471827 C5.53058661,15.5471827 5.41476227,15.4387372 5.41476227,15.3060342 L5.41476227,15.1528787 C5.41476227,15.0187488 5.53160709,14.9103033 5.67498435,14.9103033 C5.81887186,14.9103033 5.93520643,15.0187488 5.93520643,15.1528787 L5.93520643,15.3060342 C5.93520643,15.4387372 5.8193821,15.5471827 5.67702531,15.5471827 L5.67345364,15.5471827 Z M5.67345364,16.4261619 C5.53058661,16.4261619 5.41476227,16.3181921 5.41476227,16.1850134 L5.41476227,16.0323336 C5.41476227,15.8982036 5.53160709,15.7897582 5.67498435,15.7897582 C5.81887186,15.7897582 5.93520643,15.8982036 5.93520643,16.0323336 L5.93520643,16.1850134 C5.93520643,16.3181921 5.8193821,16.4261619 5.67702531,16.4261619 L5.67345364,16.4261619 Z M8.44839047,18.6093408 L8.23919232,18.6093408 C8.09530482,18.6093408 7.97846,18.5004197 7.97846,18.3667654 C7.97846,18.2326355 8.09530482,18.12419 8.23919232,18.12419 L8.43767544,18.12419 C8.58207318,18.1232387 8.698918,18.2312085 8.69993848,18.3648629 C8.70095895,18.4989928 8.58564486,18.6083896 8.44124711,18.6093408 L8.44839047,18.6093408 Z M9.42651934,18.6093408 L9.22446455,18.6093408 C9.08006681,18.6093408 8.96373223,18.5004197 8.96373223,18.3667654 C8.96373223,18.2326355 9.08006681,18.12419 9.22446455,18.12419 L9.42294767,18.12419 C9.56683517,18.1246656 9.68265951,18.2340624 9.68163903,18.3681923 C9.68061855,18.5023223 9.56377373,18.6102921 9.41937599,18.6093408 L9.42651934,18.6093408 Z M10.4046482,18.6093408 L10.1990218,18.6093408 C10.054624,18.6093408 9.93828943,18.5004197 9.93828943,18.3667654 C9.93828943,18.2326355 10.054624,18.12419 10.1990218,18.12419 L10.3975049,18.12419 C10.5419026,18.1232387 10.6587474,18.2312085 10.6597679,18.3648629 C10.6607884,18.4989928 10.544964,18.6083896 10.4010765,18.6093408 L10.4046482,18.6093408 Z M11.3827771,18.6093408 L11.1771506,18.6093408 C11.0327529,18.6093408 10.9169286,18.5004197 10.9169286,18.3667654 C10.9169286,18.2326355 11.0327529,18.12419 11.1771506,18.12419 L11.3756337,18.12419 C11.5200315,18.1232387 11.6368763,18.2312085 11.6378968,18.3648629 C11.6389173,18.4989928 11.5230929,18.6083896 11.3792054,18.6093408 L11.3827771,18.6093408 Z M12.3614162,18.6093408 L12.1583409,18.6093408 C12.0144534,18.6093408 11.8986291,18.5004197 11.8986291,18.3667654 C11.8986291,18.2326355 12.0144534,18.12419 12.1583409,18.12419 L12.3685596,18.12419 C12.5119368,18.12419 12.6282714,18.2326355 12.6282714,18.3667654 C12.6282714,18.5004197 12.5119368,18.6093408 12.3685596,18.6093408 L12.3614162,18.6093408 Z M13.3395451,18.6093408 L13.1364698,18.6093408 C12.9930926,18.6093408 12.876758,18.5004197 12.876758,18.3667654 C12.876758,18.2326355 12.9930926,18.12419 13.1364698,18.12419 L13.3359734,18.12419 C13.4793507,18.1232387 13.597216,18.2312085 13.5977262,18.3648629 C13.5987467,18.4989928 13.4829224,18.6083896 13.3395451,18.6093408 Z M14.317674,18.6093408 L14.1145987,18.6093408 C13.9712214,18.6093408 13.8548869,18.5004197 13.8548869,18.3667654 C13.8548869,18.2326355 13.9712214,18.12419 14.1145987,18.12419 L14.3141023,18.12419 C14.4574796,18.1232387 14.5753449,18.2312085 14.5763653,18.3648629 C14.5768756,18.4989928 14.4610512,18.6083896 14.317674,18.6093408 Z M15.2958029,18.6093408 L15.0962993,18.6093408 C14.952922,18.6093408 14.8365874,18.5004197 14.8365874,18.3667654 C14.8365874,18.2326355 14.952922,18.12419 15.0962993,18.12419 L15.2958029,18.12419 C15.4391801,18.12419 15.5560249,18.2326355 15.5560249,18.3667654 C15.5560249,18.5004197 15.4391801,18.6093408 15.2958029,18.6093408 Z M22.0609136,2.24372763 L22.0609136,2.25656986 C22.583909,2.25656986 23.0104691,2.64849566 23.0181227,3.13602471 C23.0181227,3.62878579 22.5895216,4.0283218 22.0609136,4.0283218 C21.5323056,4.0283218 21.1037046,3.62878579 21.1037046,3.13602471 C21.1037046,2.64326364 21.5323056,2.24372763 22.0609136,2.24372763 Z M22.0609136,4.52346107 C21.2465716,4.52346107 20.5868321,3.90798536 20.5868321,3.14886694 C20.5868321,2.39022417 21.2465716,1.77474846 22.0609136,1.77474846 C22.8752557,1.77474846 23.5355054,2.39022417 23.5355054,3.14886694 C23.5334645,3.90750972 22.8747454,4.52155851 22.0609136,4.52346107 Z M13.0968752,3.39011059 L12.8871669,3.39011059 C12.7437896,3.39011059 12.6269448,3.28118946 12.6269448,3.14753516 C12.6269448,3.01340521 12.7437896,2.90495972 12.8871669,2.90495972 L13.0861602,2.90495972 C13.2300477,2.90400845 13.3474028,3.0119783 13.3484233,3.1456326 C13.3494437,3.27976255 13.2336194,3.38915931 13.0897319,3.39011059 L13.0968752,3.39011059 Z M14.0750041,3.39011059 L13.8724391,3.39011059 C13.7285516,3.39011059 13.612217,3.28118946 13.612217,3.14753516 C13.612217,3.01340521 13.7285516,2.90495972 13.8724391,2.90495972 L14.0714325,2.90495972 C14.21532,2.905911 14.3311443,3.01483213 14.3301238,3.14896207 C14.3291033,3.28309202 14.2122585,3.39106187 14.0678608,3.39011059 L14.0750041,3.39011059 Z M15.053133,3.39011059 L14.8475065,3.39011059 C14.7031088,3.39011059 14.5867742,3.28118946 14.5867742,3.14753516 C14.5867742,3.01340521 14.7031088,2.90495972 14.8475065,2.90495972 L15.0459897,2.90495972 C15.1903874,2.90400845 15.3072322,3.0119783 15.3082527,3.1456326 C15.3092732,3.27976255 15.1934488,3.38915931 15.0495613,3.39011059 L15.053133,3.39011059 Z M16.0312619,3.39011059 L15.8256354,3.39011059 C15.6812377,3.39011059 15.5649031,3.28118946 15.5649031,3.14753516 C15.5649031,3.01340521 15.6812377,2.90495972 15.8256354,2.90495972 L16.0241185,2.90495972 C16.1685163,2.90400845 16.2853611,3.0119783 16.2863816,3.1456326 C16.287402,3.27976255 16.1715777,3.38915931 16.0276902,3.39011059 L16.0312619,3.39011059 Z M17.0093908,3.39011059 L16.8068257,3.39011059 C16.6629382,3.39011059 16.5466036,3.28118946 16.5466036,3.14753516 C16.5466036,3.01340521 16.6629382,2.90495972 16.8068257,2.90495972 L17.0165341,2.90495972 C17.1604216,2.90495972 17.2767562,3.01340521 17.2767562,3.14753516 C17.2767562,3.28118946 17.1604216,3.39011059 17.0165341,3.39011059 L17.0093908,3.39011059 Z M17.9875196,3.39011059 L17.7849546,3.39011059 C17.6410671,3.39011059 17.5247325,3.28118946 17.5247325,3.14753516 C17.5247325,3.01340521 17.6410671,2.90495972 17.7849546,2.90495972 L17.983948,2.90495972 C18.1278355,2.90400845 18.2451905,3.0119783 18.246211,3.1456326 C18.2472315,3.27976255 18.1314071,3.38915931 17.9875196,3.39011059 Z M18.9656485,3.39011059 L18.7630835,3.39011059 C18.619196,3.39011059 18.5033716,3.28118946 18.5033716,3.14753516 C18.5033716,3.01340521 18.619196,2.90495972 18.7630835,2.90495972 L18.9620768,2.90495972 C19.1059643,2.90400845 19.2233194,3.0119783 19.2243399,3.1456326 C19.2253604,3.27976255 19.109536,3.38915931 18.9656485,3.39011059 Z M19.9442876,3.39011059 L19.744784,3.39011059 C19.6008965,3.39011059 19.4850722,3.28118946 19.4850722,3.14753516 C19.4850722,3.01340521 19.6008965,2.90495972 19.744784,2.90495972 L19.9442876,2.90495972 C20.0876649,2.90495972 20.2045097,3.01340521 20.2045097,3.14753516 C20.2045097,3.28118946 20.0876649,3.39011059 19.9442876,3.39011059 Z M22.0609136,5.71859693 C21.9185568,5.71859693 21.8022223,5.61062708 21.8022223,5.47744841 L21.8022223,5.32429294 C21.8022223,5.19063863 21.9190671,5.08171751 22.0629546,5.08171751 C22.2063318,5.08171751 22.3231767,5.19063863 22.3231767,5.32429294 L22.3231767,5.47744841 C22.3252176,5.61062708 22.210924,5.72002385 22.068057,5.7219264 L22.0609136,5.7219264 L22.0609136,5.71859693 Z M22.0609136,6.59805179 C21.9185568,6.59805179 21.8022223,6.49008194 21.8022223,6.35690327 L21.8022223,6.2037478 C21.8022223,6.06961785 21.9190671,5.96117236 22.0629546,5.96117236 C22.2063318,5.96117236 22.3231767,6.06961785 22.3231767,6.2037478 L22.3231767,6.35690327 C22.3231767,6.49008194 22.2073523,6.59805179 22.0644853,6.59805179 L22.0609136,6.59805179 Z M22.0609136,7.477031 C21.9185568,7.477031 21.8022223,7.36906115 21.8022223,7.23588248 L21.8022223,7.08320265 C21.8022223,6.94907271 21.9190671,6.84015158 22.0629546,6.84015158 C22.2063318,6.84015158 22.3231767,6.94907271 22.3231767,7.08320265 L22.3231767,7.23588248 C22.3231767,7.36906115 22.2073523,7.477031 22.0644853,7.477031 L22.0609136,7.477031 Z M22.0609136,8.35648586 C21.9185568,8.35648586 21.8022223,8.24851601 21.8022223,8.11533734 L21.8022223,7.96218187 C21.8022223,7.82852756 21.9190671,7.71960644 22.0629546,7.71960644 C22.2063318,7.71960644 22.3231767,7.82852756 22.3231767,7.96218187 L22.3231767,8.11533734 C22.3231767,8.24851601 22.2073523,8.35648586 22.0644853,8.35648586 L22.0609136,8.35648586 Z M22.0609136,9.23546508 C21.9185568,9.23546508 21.8022223,9.12749523 21.8022223,8.9947922 L21.8022223,8.84163673 C21.8022223,8.70750678 21.9190671,8.59906129 22.0629546,8.59906129 C22.2063318,8.59906129 22.3231767,8.70750678 22.3231767,8.84163673 L22.3231767,8.9947922 C22.3231767,9.12749523 22.2073523,9.23594071 22.0644853,9.23594071 L22.0609136,9.23546508 Z M22.0609136,10.1149199 C21.9185568,10.1149199 21.8022223,10.0069501 21.8022223,9.87377141 L21.8022223,9.72109158 C21.8022223,9.58696164 21.9190671,9.47804051 22.0629546,9.47804051 C22.2063318,9.47804051 22.3231767,9.58696164 22.3231767,9.72109158 L22.3231767,9.87377141 C22.3231767,10.0069501 22.2073523,10.1149199 22.0644853,10.1149199 L22.0609136,10.1149199 Z M20.5097859,15.2243671 C19.9311745,15.2243671 19.4617543,14.7867801 19.4617543,14.2474065 C19.4617543,13.7080329 19.9311745,13.2704458 20.5097859,13.2704458 C21.0889076,13.2704458 21.5583278,13.7080329 21.5583278,14.2474065 C21.5583278,14.7867801 21.0889076,15.2243671 20.5097859,15.2243671 M37.6451548,11.1210372 C37.7880218,11.1210372 37.9038462,11.2290071 37.9038462,11.3621857 L37.9038462,17.1683001 C37.8997642,17.2991006 37.7849604,17.4032653 37.6451548,17.4032653 L16.6253336,17.4032653 C16.4824666,17.4032653 16.3666422,17.2952954 16.3666422,17.1621168 L16.3666422,11.3555268 C16.3707241,11.225202 16.4850178,11.1210372 16.6253336,11.1210372 L37.6451548,11.1210372 Z M20.5132556,13.775193 L20.5096839,13.775193 L20.5096839,13.7785224 C20.2244601,13.7785224 19.9928114,13.9939865 19.9928114,14.2603438 C19.9928114,14.5267012 20.2244601,14.7426409 20.5096839,14.7426409 C20.7954179,14.7426409 21.0270666,14.5267012 21.0270666,14.2603438 C21.0291076,13.9939865 20.7989896,13.7770955 20.5132556,13.775193 Z M20.5097859,23.2061929 C19.9311745,23.2061929 19.4617543,22.7686058 19.4617543,22.2292322 C19.4617543,21.6898586 19.9311745,21.2522715 20.5097859,21.2522715 C21.0889076,21.2522715 21.5583278,21.6898586 21.5583278,22.2292322 C21.5583278,22.7686058 21.0889076,23.2061929 20.5097859,23.2061929 M37.6451548,19.096204 C37.7880218,19.096204 37.9038462,19.2041739 37.9038462,19.3373525 L37.9038462,25.1434669 C37.9038462,25.2771212 37.7880218,25.3846154 37.6451548,25.3846154 L16.6253336,25.3846154 C16.4824666,25.3846154 16.3666422,25.2771212 16.3666422,25.1434669 L16.3666422,19.3373525 C16.3666422,19.2041739 16.4824666,19.096204 16.6253336,19.096204 L37.6451548,19.096204 Z M20.5097859,21.7602055 C20.2240519,21.7602055 19.9929134,21.9761452 19.9929134,22.2425025 C19.9929134,22.5083842 20.2240519,22.7238483 20.5097859,22.7238483 C20.79552,22.7238483 21.0271687,22.5083842 21.0271687,22.2425025 C21.0271687,21.9761452 20.79552,21.7602055 20.5097859,21.7602055 Z" id="path-1"></path>
    </defs>
    <g id="Internal-/-Dashboard" stroke="none" stroke-width="1" fill="none" fill-rule="evenodd">
        <g id="Current-Dashboard-Dropdown" transform="translate(-860.000000, -196.000000)">
            <g id="Main-Navigation" transform="translate(0.000000, 69.000000)">
                <g id="Training" transform="translate(174.000000, 0.000000)">
                    <g id="Drodown" transform="translate(0.000000, 85.000000)">
                        <g id="Categories" transform="translate(0.000000, 33.000000)">
                            <g id="DevOps-Cat" transform="translate(677.000000, 1.000000)">
                                <g id="Icon-/-Category-/-DevOps-Bold" transform="translate(7.000000, 0.000000)">
                                    <g id="Library" transform="translate(2.086538, 8.346154)">
                                        <mask id="mask-2" fill="white">
                                            <use xlink:href="#path-1"></use>
                                        </mask>
                                        <use id="Mask" fill="#29485B" xlink:href="#path-1"></use>
                                        <g id="🎨-Colors-/-White" mask="url(#mask-2)" fill="#FFFFFF">
                                            <g transform="translate(-1.722902, -6.346154)" id="Rectangle">
                                                <rect x="0" y="0" width="41.1288831" height="38.1194527"></rect>
                                            </g>
                                        </g>
                                    </g>
                                </g>
                            </g>
                        </g>
                    </g>
                </g>
            </g>
        </g>
    </g>
</svg>