<?xml version="1.0" encoding="UTF-8"?>
<svg width="38px" height="30px" viewBox="0 0 38 30" version="1.1" xmlns="http://www.w3.org/2000/svg" xmlns:xlink="http://www.w3.org/1999/xlink">
    <!-- Generator: sketchtool 50.2 (55047) - http://www.bohemiancoding.com/sketch -->
    <title>446FDF72-473A-4D79-972A-F633DDABC102</title>
    <desc>Created with sketchtool.</desc>
    <defs>
        <path d="M12.730966,8.99259295 C15.2710928,9.47370196 17.5716477,10.8380656 19.1729787,12.8666044 L14.3985913,17.4929723 C13.6449451,15.87658 11.8801346,14.9367914 10.0679601,15.1868447 C8.2557856,15.4368981 6.83185118,16.8166866 6.57379741,18.5726786 C6.31574364,20.3286706 7.28560057,22.038767 8.95370891,22.7690481 L8.95009123,22.7725537 C9.48130483,23.0063454 10.0580016,23.1273827 10.6415069,23.1275076 L18.8724119,23.1275076 L18.8724119,23.1836747 L18.8839722,23.1723151 L27.1148773,23.1723151 C29.3877789,23.1723151 31.2303298,21.3868885 31.2303298,19.1844531 C31.2303298,16.9820178 29.3877789,15.1965911 27.1148773,15.1965911 L27.1148773,14.4012591 C27.1619101,11.9876556 26.0767862,9.68533381 24.1675997,8.13941966 L24.0514084,8.13941966 L24.0745289,8.13941966 C20.6903019,5.48552473 15.7575031,5.84905016 12.826396,8.96835726 C12.7981615,8.96288544 12.7656362,8.97255976 12.730966,8.99259295 Z M4.80587893,10.5175679 C4.72671501,10.5372848 4.64868784,10.5623156 4.5723704,10.5926269 C5.91244479,5.80626114 9.70810057,2.02969626 14.610439,0.605046495 C19.5127774,-0.819603272 24.8267776,0.30963942 28.6639521,3.59146472 L28.6548767,3.66746986 L28.7217534,3.60266658 C30.8834167,5.46099179 32.4382769,7.8903273 33.195574,10.5926269 C37.1047946,13.1547132 38.8212455,17.8952288 37.4209856,22.2624218 C36.0207257,26.6296148 31.8341682,29.5929779 27.1148773,29.557375 L18.8839722,29.557375 L18.8377312,29.5125675 L10.6415069,29.5125675 C8.31012445,29.5223709 6.03986661,28.7903915 4.17932156,27.4290217 L4.19088182,27.3842142 L4.17932156,27.3954161 C0.555159839,24.6944919 -0.898696926,20.0613259 0.560423436,15.8626736 C1.34047366,13.6180611 2.86099164,11.7625445 4.80587893,10.5175679 Z" id="path-1"></path>
    </defs>
    <g id="Internal-/-Dashboard" stroke="none" stroke-width="1" fill="none" fill-rule="evenodd">
        <g id="Current-Dashboard-Dropdown" transform="translate(-615.000000, -193.000000)">
            <g id="Main-Navigation" transform="translate(0.000000, 69.000000)">
                <g id="Training" transform="translate(174.000000, 0.000000)">
                    <g id="Drodown" transform="translate(0.000000, 85.000000)">
                        <g id="Categories" transform="translate(0.000000, 33.000000)">
                            <g id="Google-Cloud-Cat" transform="translate(413.000000, 0.000000)">
                                <g id="Icon-/-Categories-/-Google-Cloud" transform="translate(26.000000, 0.000000)">
                                    <g id="Google-Cloud" transform="translate(2.086538, 6.259615)">
                                        <mask id="mask-2" fill="white">
                                            <use xlink:href="#path-1"></use>
                                        </mask>
                                        <use id="Mask" fill="#EA4335" fill-rule="nonzero" xlink:href="#path-1"></use>
                                        <g id="🎨-Colors-/-White" mask="url(#mask-2)" fill="#FFFFFF">
                                            <g transform="translate(-1.722902, -4.926282)" id="Rectangle">
                                                <rect x="0" y="0" width="41.1288831" height="39.1225962"></rect>
                                            </g>
                                        </g>
                                    </g>
                                </g>
                            </g>
                        </g>
                    </g>
                </g>
            </g>
        </g>
    </g>
</svg>