<?xml version="1.0" encoding="UTF-8"?>
<svg width="30px" height="38px" viewBox="0 0 30 38" version="1.1" xmlns="http://www.w3.org/2000/svg" xmlns:xlink="http://www.w3.org/1999/xlink">
    <!-- Generator: sketchtool 50.2 (55047) - http://www.bohemiancoding.com/sketch -->
    <title>074DFE8A-E1E1-4B3D-9120-AC58004DC447</title>
    <desc>Created with sketchtool.</desc>
    <defs>
        <path d="M14.0238188,9.00009933 C14.0238188,9.12205189 13.9105042,9.12205189 13.9105042,9.12205189 L13.7971895,9.12205189 C13.6838749,9.12205189 13.6838749,9.00009933 13.5705603,8.87814676 C13.5705603,8.87814676 13.4572456,8.7561942 13.4572456,8.63424163 C13.4572456,8.51228907 13.4572456,8.51228907 13.5705603,8.51228907 L13.7971895,8.63424163 C13.9105042,8.7561942 14.0238188,8.87814676 14.0238188,9.00009933 M11.9841554,7.78057367 C11.9841554,7.17081085 11.7575262,6.80495315 11.4175823,6.80495315 C11.4175823,6.80495315 11.4175823,6.92690572 11.3042676,6.92690572 L11.3042676,7.17081085 L11.6442115,7.17081085 C11.6442115,7.41471598 11.7575262,7.53666854 11.7575262,7.78057367 L11.9841554,7.78057367 M15.9501675,7.17081085 C16.1767968,7.17081085 16.2901114,7.41471598 16.4034261,7.78057367 L16.6300553,7.78057367 C16.5167407,7.65862111 16.5167407,7.53666854 16.5167407,7.41471598 C16.5167407,7.29276341 16.5167407,7.17081085 16.4034261,7.04885828 C16.2901114,6.92690572 16.1767968,6.80495315 16.0634822,6.80495315 C16.0634822,6.80495315 15.9501675,6.92690572 15.8368529,6.92690572 C15.8368529,7.04885828 15.9501675,7.04885828 15.9501675,7.17081085 M12.5507286,9.12205189 C12.437414,9.12205189 12.437414,9.12205189 12.437414,9.00009933 C12.437414,8.87814676 12.437414,8.7561942 12.5507286,8.63424163 C12.7773579,8.63424163 12.8906725,8.51228907 12.8906725,8.51228907 C13.0039871,8.51228907 13.0039871,8.63424163 13.0039871,8.63424163 C13.0039871,8.7561942 12.8906725,8.87814676 12.6640432,9.12205189 L12.5507286,9.12205189 M11.3042676,9.00009933 C10.8510091,8.7561942 10.7376945,8.3903365 10.7376945,7.78057367 C10.7376945,7.41471598 10.7376945,7.17081085 10.9643237,6.92690572 C11.0776384,6.68300058 11.3042676,6.56104802 11.5308969,6.56104802 C11.7575262,6.56104802 11.8708408,6.68300058 12.0974701,6.92690572 C12.2107847,7.29276341 12.3240993,7.65862111 12.3240993,8.0244788 L12.3240993,8.14643137 L12.3240993,8.26838394 L12.437414,8.26838394 L12.437414,8.14643137 C12.5507286,8.14643137 12.5507286,7.90252624 12.5507286,7.41471598 C12.5507286,7.04885828 12.5507286,6.68300058 12.3240993,6.31714289 C12.0974701,5.95128519 11.8708408,5.70738006 11.4175823,5.70738006 C11.0776384,5.70738006 10.7376945,5.95128519 10.6243799,6.31714289 C10.3977506,6.80495315 10.3524247,7.17081085 10.3524247,7.78057367 C10.3524247,8.26838394 10.5110652,8.7561942 10.9643237,9.24400446 C11.0776384,9.12205189 11.190953,9.12205189 11.3042676,9.00009933 M25.4685966,26.1954111 C25.5819112,26.1954111 25.5819112,26.14663 25.5819112,26.0368727 C25.5819112,25.7685771 25.4685966,25.4515004 25.1286527,25.097838 C24.7887088,24.7319803 24.2221356,24.5002704 23.5422479,24.4027083 C23.4289332,24.3905131 23.3156186,24.3905131 23.3156186,24.3905131 C23.202304,24.3661226 23.202304,24.3661226 23.0889893,24.3661226 C22.9756747,24.3539273 22.7490454,24.3295368 22.6357308,24.3051463 C22.9756747,23.1709874 23.0889893,22.1709764 23.0889893,21.2929179 C23.0889893,20.0733923 22.8623601,19.2197243 22.4091015,18.4880089 C21.955843,17.7562935 21.5025845,17.3904358 20.9360113,17.2684833 C20.8226967,17.3904358 20.8226967,17.3904358 20.8226967,17.5123884 C21.3892699,17.7562935 21.955843,18.2441038 22.2957869,18.9758192 C22.6357308,19.8294871 22.7490454,20.5612025 22.7490454,21.4148705 C22.7490454,22.0978049 22.6357308,23.1100111 22.1824723,24.4027083 C21.7292137,24.5978324 21.2759552,25.0490569 20.9360113,25.7563818 C20.9360113,25.8661391 20.9360113,25.9271154 21.049326,25.9271154 C21.049326,25.9271154 21.1626406,25.8173581 21.2759552,25.6100387 C21.5025845,25.4027194 21.6158991,25.1954 21.8425284,24.9880807 C22.1824723,24.7807613 22.4091015,24.671004 22.7490454,24.671004 C23.3156186,24.671004 23.8821917,24.7563708 24.2221356,24.9271044 C24.6753942,25.0856427 24.9020234,25.2563763 25.0153381,25.4515004 C25.1286527,25.6344293 25.2419673,25.8051628 25.355282,25.9637012 C25.355282,26.1222395 25.4685966,26.1954111 25.4685966,26.1954111 M15.0436505,8.51228907 C14.9303359,8.3903365 14.9303359,8.14643137 14.9303359,7.90252624 C14.9303359,7.41471598 14.9303359,7.17081085 15.1569651,6.80495315 C15.3835944,6.56104802 15.6102236,6.43909545 15.8368529,6.43909545 C16.1767968,6.43909545 16.4034261,6.68300058 16.6300553,6.92690572 C16.74337,7.29276341 16.8566846,7.53666854 16.8566846,7.90252624 C16.8566846,8.51228907 16.6300553,8.87814676 16.1767968,9.00009933 C16.1767968,9.00009933 16.2901114,9.12205189 16.4034261,9.12205189 C16.6300553,9.12205189 16.74337,9.24400446 16.9699992,9.36595702 C17.0833139,8.63424163 17.1966285,8.14643137 17.1966285,7.53666854 C17.1966285,6.80495315 17.0833139,6.31714289 16.8566846,5.95128519 C16.5167407,5.5854275 16.1767968,5.46347493 15.7235383,5.46347493 C15.3835944,5.46347493 15.0436505,5.5854275 14.7037066,5.82933263 C14.4770773,6.19519032 14.3637627,6.43909545 14.3637627,6.80495315 C14.3637627,7.41471598 14.4770773,7.90252624 14.7037066,8.3903365 C14.8170212,8.3903365 14.9303359,8.51228907 15.0436505,8.51228907 M16.4034261,10.4635301 C14.9303359,11.5611032 13.7971895,12.0489135 12.8906725,12.0489135 C12.0974701,12.0489135 11.3042676,11.6830558 10.6243799,11.0732929 C10.7376945,11.3171981 10.8510091,11.5611032 10.9643237,11.6830558 L11.6442115,12.4147712 C12.0974701,12.9025814 12.6640432,13.1464866 13.2306164,13.1464866 C14.0238188,13.1464866 14.9303359,12.6586763 16.0634822,11.8050083 L17.0833139,11.0732929 C17.3099431,10.8293878 17.5365724,10.5854827 17.5365724,10.219625 C17.5365724,10.0976724 17.5365724,9.97571985 17.4232577,9.97571985 C17.3099431,9.73181472 16.74337,9.36595702 15.6102236,9.00009933 C14.590392,8.51228907 13.7971895,8.26838394 13.343931,8.26838394 C13.0039871,8.26838394 12.437414,8.51228907 11.6442115,9.00009933 C10.9643237,9.48790959 10.5110652,9.97571985 10.5110652,10.4635301 C10.5110652,10.4635301 10.6243799,10.5854827 10.7376945,10.8293878 C11.4175823,11.4391506 12.0974701,11.8050083 12.7773579,11.8050083 C13.6838749,11.8050083 14.8170212,11.3171981 16.2901114,10.0976724 L16.2901114,10.3415775 C16.4034261,10.3415775 16.4034261,10.4635301 16.4034261,10.4635301 M19.0096626,35.0979483 C19.4629211,36.0150316 20.2561235,36.4760123 21.1626406,36.4760123 C21.3892699,36.4760123 21.6158991,36.4394265 21.8425284,36.366255 C22.0691576,36.317474 22.2957869,36.2321072 22.4091015,36.1345451 C22.5224162,36.0491783 22.6357308,35.9638115 22.7490454,35.8662495 C22.9756747,35.7808827 22.9756747,35.7199064 23.0889893,35.6589301 L25.0153381,33.8662274 C25.4685966,33.4771987 25.9218551,33.1369511 26.4884283,32.8418259 C26.9416868,32.5491397 27.3949453,32.3540156 27.6215746,32.2442583 C27.9615185,32.1466962 28.1881477,32.0003532 28.414777,31.8052291 C28.5280916,31.6223002 28.6414063,31.3905903 28.6414063,31.0979042 C28.6414063,30.7442417 28.414777,30.4759461 28.1881477,30.280822 C27.9615185,30.0856979 27.7348892,29.9515501 27.50826,29.8661833 C27.2816307,29.7808165 27.0550014,29.5856924 26.7150575,29.2564204 C26.4884283,28.9393438 26.261799,28.5003145 26.1484844,27.9271375 L26.0351697,27.2198126 C25.9218551,26.8905407 25.9218551,26.6466355 25.8085405,26.5124877 C25.8085405,26.475902 25.8085405,26.4637067 25.6952259,26.4637067 C25.5819112,26.4637067 25.355282,26.573464 25.2419673,26.7807834 C25.0153381,26.9881027 24.7887088,27.2198126 24.5620795,27.4637177 C24.4487649,27.7076229 24.108821,27.9271375 23.8821917,28.1344568 C23.5422479,28.3417762 23.202304,28.4515335 22.9756747,28.4515335 C22.0691576,28.4515335 21.6158991,28.1832379 21.2759552,27.6588418 C21.049326,27.2685936 20.9360113,26.8173691 20.8226967,26.3051684 C20.5960674,26.097849 20.4827528,25.9880917 20.2561235,25.9880917 C19.6895504,25.9880917 19.4629211,26.622245 19.4629211,27.902747 L19.4629211,28.3051904 L19.4629211,29.7198402 L19.4629211,30.805218 L19.4629211,31.3296141 L19.4629211,31.6954718 C19.4629211,31.8052291 19.3496065,32.0491342 19.3496065,32.4271871 C19.2362919,32.8052401 19.2362919,33.2345131 19.2362919,33.7198843 L19.0096626,35.0735578 L19.0096626,35.0942898 M2.57904101,34.4491607 C3.63286709,34.6150162 4.84533365,34.9698981 6.21644069,35.5113675 C7.58754773,36.0479588 8.426076,36.3284497 8.73202551,36.3284497 C9.52522793,36.3284497 10.1824528,35.9503968 10.726363,35.2199009 C10.8396777,34.9833129 10.8396777,34.7052611 10.8396777,34.3857453 C10.8396777,33.2332936 10.1937843,31.7759604 8.90199745,30.0076482 L8.13145796,28.8978799 C7.97281748,28.66617 7.7801826,28.3125076 7.53089041,27.8368926 C7.29292969,27.3612776 7.07763189,26.9954199 6.90765994,26.7393195 C6.76035092,26.4588286 6.52239019,26.1783377 6.21644069,25.8978468 C5.92182264,25.6173559 5.58187875,25.434427 5.20794047,25.336865 C4.73201901,25.434427 4.40340658,25.6051606 4.2447661,25.8368705 C4.08612561,26.0685804 3.99547391,26.3246808 3.97281098,26.5929764 C3.93881659,26.8490768 3.87082781,27.0198104 3.75751318,27.1051772 C3.64419855,27.1783487 3.45156368,27.239325 3.19094002,27.3003013 C3.13428271,27.3003013 3.03229954,27.3003013 2.88499052,27.3124966 L2.57904101,27.3124966 C1.97847347,27.3124966 1.57054079,27.3856681 1.35524299,27.5076207 C1.07195641,27.8612831 0.924647393,28.2637266 0.924647393,28.6905605 C0.924647393,28.8856846 0.969973246,29.2149566 1.06062495,29.6783763 C1.15127666,30.1296008 1.19660251,30.4954585 1.19660251,30.7515589 C1.19660251,31.2515644 1.06062495,31.7515699 0.777338372,32.2515755 C0.494051794,32.7759715 0.346742773,33.1662197 0.346742773,33.4442715 C0.460057404,33.9174475 1.20793397,34.250378 2.57904101,34.4455021 M6.35241824,23.3600139 C6.35241824,22.5185412 6.55638458,21.5917017 6.97564872,20.4941286 C7.38358139,19.3965555 7.79151407,18.6648401 8.18811528,18.1770299 C8.16545235,18.0550773 8.10879503,18.0550773 8.01814333,18.0550773 L7.9048287,17.9331247 C7.57621627,18.2989824 7.17961505,19.1526504 6.7036936,20.3721761 C6.22777215,21.4697491 5.97847996,22.4819554 5.97847996,23.2258661 C5.97847996,23.7746526 6.10312606,24.2502676 6.32975532,24.6649064 C6.57904751,25.0673498 7.17961505,25.6527221 8.13145796,26.3966328 L9.33259305,27.2381055 C10.6130484,28.4332406 11.2929362,29.2625181 11.2929362,29.7503283 C11.2929362,30.0064287 11.1796215,30.2625291 10.8396777,30.54302 C10.6130484,30.8357062 10.3070989,30.9820492 10.0464752,30.9820492 C10.0238123,30.9820492 10.0124808,31.0064398 10.0124808,31.067416 C10.0124808,31.0796113 10.1257955,31.3235164 10.3637562,31.7991314 C10.8396777,32.4942611 11.8595093,32.8357282 13.2192849,32.8357282 C15.7122068,32.8357282 17.6385555,31.7381552 19.1116458,29.543009 C19.1116458,28.9332461 19.1116458,28.5551932 18.9983311,28.3966549 L18.9983311,27.9454304 C18.9983311,27.1527387 19.1116458,26.5551711 19.338275,26.1649229 C19.5649043,25.7746747 19.7915335,25.5917459 20.1314774,25.5917459 C20.3581067,25.5917459 20.584736,25.6771126 20.8113652,25.8600415 C20.9246799,24.9210067 20.9246799,24.1039246 20.9246799,23.3722092 C20.9246799,22.2624408 20.9246799,21.3477966 20.6980506,20.4941286 C20.584736,19.7624132 20.3581067,19.1526504 20.1314774,18.6648401 C19.9048482,18.2989824 19.6782189,17.9331247 19.4515897,17.567267 C19.2249604,17.2014094 19.1116458,16.8355517 18.8850165,16.469694 C18.7717019,15.9818837 18.6583872,15.616026 18.6583872,15.0062632 C18.3184433,14.3965003 18.0918141,13.7867375 17.7518702,13.1769747 C17.5252409,12.5672119 17.2986117,11.957449 17.0719824,11.4696388 L16.0521507,12.3233067 C14.9190044,13.1769747 14.0124873,13.5428324 13.2192849,13.5428324 C12.5393971,13.5428324 11.972824,13.4208798 11.6328801,12.9330696 L10.9529923,12.3233067 C10.9529923,12.6891644 10.8396777,13.1769747 10.6130484,13.664785 L9.89916621,15.1282157 C9.58188524,15.9818837 9.4119133,16.469694 9.37791891,16.8355517 C9.33259305,17.0794568 9.29859866,17.3233619 9.27593574,17.3233619 L8.426076,19.1526504 C7.50822749,20.9819389 7.0436375,22.6770795 7.0436375,24.079534 C7.0436375,24.3600249 7.06630042,24.6527111 7.11162628,24.9453973 C6.60171043,24.5673443 6.35241824,24.0429483 6.35241824,23.3600139 M14.4657459,34.8967266 C12.9926557,34.8967266 11.8595093,35.1113631 11.0663069,35.5369776 L11.0663069,35.5003918 C10.4997338,36.2321072 9.86517182,36.6101601 8.9813177,36.6101601 C8.426076,36.6101601 7.55355334,36.3784503 6.37508117,35.9150305 C5.18527754,35.4760013 4.13145147,35.1394122 3.21360295,34.9174585 C3.12295125,34.8894094 2.91898491,34.8479456 2.59037248,34.7918474 C2.27309151,34.7369687 1.97847347,34.6808706 1.71784981,34.6247724 C1.47988909,34.5698937 1.20793397,34.486966 0.91331593,34.3747696 C0.630029351,34.2784271 0.403400088,34.1528159 0.233428141,34.0003752 C0.0770539495,33.846715 0,33.6735424 0,33.4796378 C0,33.2845137 0.0385269747,33.0759748 0.115580924,32.8540211 C0.188102288,32.7198733 0.26742253,32.5857255 0.346742773,32.4637729 C0.426063015,32.3296251 0.494051794,32.2076725 0.539377646,32.08572 C0.607366425,31.9759627 0.652692278,31.8662053 0.69801813,31.7442528 C0.743343983,31.6344955 0.788669836,31.5247382 0.811332762,31.3905903 C0.833995688,31.2686378 0.856658615,31.1466852 0.856658615,31.0247326 C0.856658615,30.9027801 0.811332762,30.5369224 0.720681057,29.8905738 C0.630029351,29.2564204 0.584703499,28.853977 0.584703499,28.6832434 C0.584703499,28.1466521 0.69801813,27.7198181 0.94731032,27.4149367 C1.19660251,27.1100553 1.43456324,26.951517 1.68385542,26.951517 L2.98697369,26.951517 C3.08895686,26.951517 3.24759734,26.8905407 3.48555807,26.7441976 C3.56487831,26.5490735 3.63286709,26.3905352 3.67819294,26.2441921 C3.73485026,26.097849 3.75751318,25.9880917 3.78017611,25.9393107 C3.80283903,25.8661391 3.82550196,25.7929676 3.84816489,25.7319913 C3.89349074,25.6466245 3.95014806,25.5490625 4.0294683,25.4515004 C3.93881659,25.3295478 3.89349074,25.1710095 3.89349074,24.9758854 C3.89349074,24.8417376 3.89349074,24.719785 3.91615367,24.6466135 C3.91615367,24.2075842 4.10878854,23.5856262 4.51672121,22.768544 L4.91332242,22.0002428 C5.24193486,21.3416989 5.49122704,20.8538887 5.67253046,20.3660784 C5.86516533,19.8782682 6.06913167,19.1465528 6.29576093,18.1709322 C6.47706434,17.3172643 6.90765994,16.4635963 7.58754773,15.6099284 L8.43740747,14.5123553 C9.02664355,13.7806399 9.4119133,13.1708771 9.6272111,12.6830668 C9.8425089,12.1952565 9.95582353,11.5854937 9.95582353,11.0976835 C9.95582353,10.8537783 9.89916621,10.1220629 9.77452012,8.90253728 C9.66120549,7.68301162 9.60454817,6.46348597 9.60454817,5.36591288 C9.60454817,4.51224492 9.67253695,3.90248209 9.81984597,3.29271927 C9.96715499,2.68295644 10.2277786,2.07319361 10.6130484,1.58538335 C10.9529923,1.09757309 11.4062508,0.609762827 12.0861386,0.365857696 C12.7660264,0.121952565 13.5592288,0 14.4657459,0 C14.8056898,0 15.1456337,0 15.4855775,0.121952565 C15.8255214,0.121952565 16.27878,0.243905131 16.8453531,0.487810262 C17.2986117,0.731715393 17.7518702,0.975620523 18.0918141,1.34147822 C18.5450726,1.70733592 18.8850165,2.31709874 19.2249604,2.92686157 C19.4515897,3.65857696 19.6782189,4.39029236 19.7915335,5.36591288 C19.9048482,5.97567571 19.9048482,6.58543853 20.0181628,7.43910649 C20.0181628,8.17082188 20.1314774,8.65863214 20.1314774,9.02448984 C20.2447921,9.39034754 20.2447921,9.8781578 20.3581067,10.4879206 C20.4714213,10.9757309 20.584736,11.4635411 20.8113652,11.8293988 C21.0379945,12.3172091 21.2646238,12.8050194 21.6045677,13.2928296 C21.9445115,13.9025925 22.3977701,14.5123553 22.8510286,15.2440707 C23.8708603,16.4635963 24.6640627,17.8050746 25.1173212,19.1465528 C25.6838944,20.3660784 26.0238383,21.9514618 26.0238383,23.6466024 C26.0238383,24.4880751 25.9105236,25.3051573 25.6838944,26.097849 C25.9105236,26.097849 26.0238383,26.1954111 26.1371529,26.3661446 C26.2504675,26.5368782 26.3637822,26.9027359 26.4770968,27.475913 L26.5904114,28.378362 C26.7037261,28.6466576 26.8170407,28.902758 27.1569846,29.1222726 C27.3836139,29.3417872 27.6102431,29.5247161 27.950187,29.6710592 C28.1768163,29.7930117 28.5167602,29.9637453 28.7433894,30.1832599 C28.9700187,30.4271651 29.0833333,30.6832655 29.0833333,30.9515611 C29.0833333,31.3661998 28.9700187,31.6710812 28.7433894,31.8905959 C28.5167602,32.134501 28.2901309,32.3052346 27.950187,32.4149919 C27.7235578,32.5369445 27.2702992,32.7808496 26.5904114,33.1247558 C26.0238383,33.4857354 25.4572651,33.9235451 24.890692,34.4418435 L23.7575457,35.4796599 C23.3042871,35.9552749 22.8510286,36.296742 22.5110847,36.5040614 C22.1711408,36.723576 21.7178823,36.8333333 21.2646238,36.8333333 L20.4714213,36.7357713 C19.5649043,36.4796709 18.9983311,35.9918606 18.6583872,35.24795 C16.8453531,35.011362 15.3722629,34.8942875 14.4657459,34.8942875" id="path-1"></path>
    </defs>
    <g id="Internal-/-Dashboard" stroke="none" stroke-width="1" fill="none" fill-rule="evenodd">
        <g id="Current-Dashboard-Dropdown" transform="translate(-711.000000, -189.000000)">
            <g id="Main-Navigation" transform="translate(0.000000, 69.000000)">
                <g id="Training" transform="translate(174.000000, 0.000000)">
                    <g id="Drodown" transform="translate(0.000000, 85.000000)">
                        <g id="Categories" transform="translate(0.000000, 33.000000)">
                            <g id="Linux-Cat" transform="translate(530.000000, 0.000000)">
                                <g id="Icon-/-Category-/-Linux">
                                    <g id="Difficulty" transform="translate(7.750000, 2.583333)">
                                        <mask id="mask-2" fill="white">
                                            <use xlink:href="#path-1"></use>
                                        </mask>
                                        <use id="Mask" fill="#000000" fill-rule="nonzero" xlink:href="#path-1"></use>
                                        <g id="🎨-Colors-/-White" mask="url(#mask-2)" fill="#FFFFFF">
                                            <g transform="translate(-4.592105, -1.674242)" id="Rectangle">
                                                <rect x="0" y="0" width="36.7628205" height="39.7435897"></rect>
                                            </g>
                                        </g>
                                    </g>
                                </g>
                            </g>
                        </g>
                    </g>
                </g>
            </g>
        </g>
    </g>
</svg>