<svg xmlns="http://www.w3.org/2000/svg" width="429" height="71" viewBox="0 0 429 71">
  <defs>
    <style>
      .cls-1 {
        fill: #fff;
        fill-rule: evenodd;
      }
    </style>
  </defs>
  <path id="logo" class="cls-1" d="M187.777,152.376V127.319q0-3.333,3.087-3.333h1.045q3.234,0,3.233,3.34v22.666H207.2q3.378,0,3.379,3.066v0.193q0,3.164-3.379,3.162H191.593a3.715,3.715,0,0,1-2.807-1.045A4.133,4.133,0,0,1,187.777,152.376Zm26.351-27.547a2.835,2.835,0,0,1,1.045-2.335,5.413,5.413,0,0,1,5.786-.01A2.839,2.839,0,0,1,222,124.84a2.9,2.9,0,0,1-1.045,2.379,5.327,5.327,0,0,1-5.786,0A2.917,2.917,0,0,1,214.128,124.829Zm0.413,28.447V135.25q0-3.382,3.136-3.406h0.729q3.137,0,3.161,3.406v18.026q0,3.333-3.088,3.332h-0.753Q214.542,156.608,214.541,153.276Zm12.5,0v-20.63a0.623,0.623,0,0,1,.342-0.292,3.964,3.964,0,0,1,.987-0.352,5.452,5.452,0,0,1,1.306-.158q3.587,0,4.245,3.883a9.2,9.2,0,0,1,8-4.175q4.519,0,6.766,2.785a11.243,11.243,0,0,1,2.248,7.286v11.653q0,3.333-3.087,3.332h-0.754q-3.185,0-3.184-3.358V142.563a5.893,5.893,0,0,0-1.164-3.861,4.063,4.063,0,0,0-3.322-1.409,5.624,5.624,0,0,0-5.36,3.211V153.25q0,3.36-3.1,3.358h-0.731Q227.036,156.608,227.036,153.276ZM255.721,147V135.25q0-3.382,3.087-3.406h0.754q3.184,0,3.184,3.431V146.06a5.788,5.788,0,0,0,1.192,3.86,4.206,4.206,0,0,0,3.4,1.409,5.558,5.558,0,0,0,5.226-3.21V135.275q0-3.407,3.147-3.431H276.4q3.2,0,3.2,3.406v20.556a0.522,0.522,0,0,1-.342.328,4.049,4.049,0,0,1-1,.328,5.985,5.985,0,0,1-1.294.146q-3.537,0-4.244-3.739a9.237,9.237,0,0,1-7.973,4.2q-4.522,0-6.77-2.8A11.246,11.246,0,0,1,255.721,147Zm27.421,7.372,7.365-10.072-7.317-10.144a0.952,0.952,0,0,1,.378-0.754,4.878,4.878,0,0,1,1.47-1.083,4.341,4.341,0,0,1,2.042-.523,4.225,4.225,0,0,1,3.914,2.554l4.132,6.472,4.133-6.472a4.3,4.3,0,0,1,3.841-2.554,4.582,4.582,0,0,1,2.115.523,5.39,5.39,0,0,1,1.531,1.083,0.992,0.992,0,0,1,.365.632,0.263,0.263,0,0,1-.025.122L299.672,144.3l7.317,10.072a0.75,0.75,0,0,1-.353.741,5.351,5.351,0,0,1-1.519,1.071,4.687,4.687,0,0,1-2.163.523,4.178,4.178,0,0,1-3.792-2.53l-4.133-6.471-4.084,6.471a4.261,4.261,0,0,1-3.865,2.53,4.494,4.494,0,0,1-2.066-.523,5.4,5.4,0,0,1-1.532-1.083,1.277,1.277,0,0,1-.389-0.633A0.259,0.259,0,0,1,283.142,154.371Zm33.814,0.145,11.012-28.437a2.7,2.7,0,0,1,1.386-1.642,7.77,7.77,0,0,1,3.4-.548,7.5,7.5,0,0,1,3.379.548,2.729,2.729,0,0,1,1.337,1.642l11.255,28.388a0.47,0.47,0,0,1,.024.146,1.21,1.21,0,0,1-.413.706,4.985,4.985,0,0,1-1.58,1,5.09,5.09,0,0,1-2.018.438q-2.942,0-4.229-3.478l-1.945-5.085h-11.79l-1.945,5.182q-1.191,3.381-4.035,3.381a4.879,4.879,0,0,1-1.921-.413,4.736,4.736,0,0,1-1.507-.949,1.115,1.115,0,0,1-.437-0.7A0.552,0.552,0,0,1,316.956,154.516Zm11.255-11.8h8.873l-4.424-11.7Zm22.146,1.534a12.236,12.236,0,0,1,3.606-9.088,12.531,12.531,0,0,1,9.192-3.563q4.991,0,7.678,2.193t2.691,4.459a2.559,2.559,0,0,1-.949,2.063,4.442,4.442,0,0,1-1.9,1,1.129,1.129,0,0,1-1.045-.012,6.092,6.092,0,0,0-6.186-3.959,6.285,6.285,0,0,0-4.761,1.957,6.889,6.889,0,0,0-1.864,4.954,7.144,7.144,0,0,0,1.864,5.086,6.227,6.227,0,0,0,4.761,1.991,6.13,6.13,0,0,0,6.186-3.982,1.163,1.163,0,0,1,1.021-.024,4.034,4.034,0,0,1,1.92.983,2.684,2.684,0,0,1,.949,2.136q0,2.167-2.751,4.4t-7.618,2.231A12.316,12.316,0,0,1,350.357,144.252Zm25.622,5.691a6.548,6.548,0,0,1,3.816-6.18q3.817-1.994,11.815-2.091h0.8q0-4.647-5-4.646a6.182,6.182,0,0,0-6.01,3.595,1.776,1.776,0,0,1-1.127.046,4.975,4.975,0,0,1-2.265-.816,2.342,2.342,0,0,1-1.138-2.1q0-2.548,2.889-4.372t8.115-1.825q11.556,0,11.558,10.023v14.4a1.069,1.069,0,0,1-.838.511,6.069,6.069,0,0,1-1.849.267q-3.573,0-4.191-3.819-2.8,4.038-8.434,4.038a8.639,8.639,0,0,1-5.965-1.946A6.491,6.491,0,0,1,375.979,149.943Zm6.709-.511a2.582,2.582,0,0,0,1.023,2.141,4.347,4.347,0,0,0,2.755.8,6.052,6.052,0,0,0,4.263-1.545,5.1,5.1,0,0,0,1.683-3.929v-1.411l-1.292.073a17.743,17.743,0,0,0-6.336,1.009A3.011,3.011,0,0,0,382.688,149.432Zm20.42-5.011q0-5.845,3.136-9.357a10.49,10.49,0,0,1,8.216-3.512,9.973,9.973,0,0,1,4.583,1.044,8.3,8.3,0,0,1,3.2,2.734V122.694a0.494,0.494,0,0,1,.342-0.314,4.556,4.556,0,0,1,1-.316,5.983,5.983,0,0,1,1.293-.146q4.39,0,4.39,5.6v25.77q0,3.32-3.074,3.32h-0.755q-3.2,0-3.2-3.253V152.57a8.538,8.538,0,0,1-7.876,4.5,10.373,10.373,0,0,1-8.119-3.518A13.208,13.208,0,0,1,403.108,144.421Zm6.782,0a7.605,7.605,0,0,0,1.737,5.181,5.677,5.677,0,0,0,4.486,2,6.243,6.243,0,0,0,4.327-1.618,5.323,5.323,0,0,0,1.8-4.147v-4.647a6.071,6.071,0,0,0-6.029-3.892,5.826,5.826,0,0,0-4.6,1.946A7.552,7.552,0,0,0,409.89,144.421Zm23.288,0.024a12.651,12.651,0,0,1,3.587-9.232,12.223,12.223,0,0,1,9.127-3.661,11.732,11.732,0,0,1,8.727,3.393,11.946,11.946,0,0,1,3.355,8.77V144.2a2.722,2.722,0,0,1-.4,1.471,1.476,1.476,0,0,1-1.266.475H439.533a5.749,5.749,0,0,0,2.26,4,7.751,7.751,0,0,0,4.814,1.454q4.788,0,6.879-3.389a1.566,1.566,0,0,1,.856.1,3.953,3.953,0,0,1,1.653.939,2.436,2.436,0,0,1,.844,1.912q0,2.261-2.857,4.085a14.076,14.076,0,0,1-7.647,1.824,13.242,13.242,0,0,1-9.57-3.443A12.138,12.138,0,0,1,433.178,144.445Zm6.369-2.384h11.96a5.906,5.906,0,0,0-1.615-4.075,5.46,5.46,0,0,0-4.073-1.544,5.965,5.965,0,0,0-4.157,1.569A6.7,6.7,0,0,0,439.547,142.061Zm22.365,11.215v-20.63a0.619,0.619,0,0,1,.342-0.292,3.964,3.964,0,0,1,.987-0.352,5.452,5.452,0,0,1,1.306-.158q3.585,0,4.244,3.788a8.73,8.73,0,0,1,7.493-4.08q5.925,0,7.773,4.864a9.149,9.149,0,0,1,8.217-4.864q4.485,0,6.63,2.591a10.744,10.744,0,0,1,2.146,7.066v12.067q0,3.333-3.1,3.332H497.22q-3.2,0-3.2-3.358V142.244q0-4.974-4.254-4.951a5.117,5.117,0,0,0-2.782.821,5.71,5.71,0,0,0-2.031,2.194V153.25q0,3.36-3.087,3.358h-0.7q-3.234,0-3.233-3.358V142.416q0-5.123-4.17-5.123a5.1,5.1,0,0,0-2.776.821,5.913,5.913,0,0,0-2.049,2.194V153.25q0,3.36-3.1,3.358h-0.731Q461.91,156.608,461.912,153.276Zm41.714-19.389a0.836,0.836,0,0,1,.414-0.693,5.38,5.38,0,0,1,1.458-.949,4.491,4.491,0,0,1,1.945-.45q2.844,0,3.938,3.551l5.275,13.891,4.692-13.841q1.094-3.577,3.865-3.6a4.656,4.656,0,0,1,1.872.426,5.515,5.515,0,0,1,1.494.9,0.794,0.794,0,0,1,.426.669l-11.06,28.754q-1.338,3.43-3.963,3.43a4.607,4.607,0,0,1-1.9-.425,5.879,5.879,0,0,1-1.447-.864,0.731,0.731,0,0,1-.4-0.657l4.035-9.147a2.583,2.583,0,0,1-2.285-1.6ZM133.3,149.173l5.616,11.239,5.423-11.239-5.423-3.681Zm43.6-28.27L139.349,105,100,120.9l14.165,6.474a30.577,30.577,0,0,0-6.446,18.272V167.61l9.862,0.17a30.693,30.693,0,0,0,41.823,0l9.717-.17V146.151c0-.167-0.048-0.335-0.048-0.5a30.569,30.569,0,0,0-6.565-18.273l6.613-3.3v4.028h0v8.3h3.319v-8.3h0v-5.054Zm-12,24.746a26.269,26.269,0,1,1-46.642-16.588l21.026,9.379,19.807-9.267A26.174,26.174,0,0,1,164.9,145.649ZM150.1,144.6a2.06,2.06,0,1,0-2.058-2.06A2.059,2.059,0,0,0,150.1,144.6Zm-23.478-4.119a2.06,2.06,0,1,0,2.058,2.059A2.059,2.059,0,0,0,126.627,140.479Z" transform="translate(-100 -105)"/>
</svg>
