<svg xmlns="http://www.w3.org/2000/svg" width="332" height="73" viewBox="0 0 332 73">
  <defs>
    <style>
      .cls-1 {
        fill: #fff;
        fill-rule: evenodd;
      }
    </style>
  </defs>
  <path id="rackspace_logo" data-name="rackspace logo" class="cls-1" d="M776.739,6594.49c0-11.43,8.825-20.04,20.542-20.07a17.948,17.948,0,0,1,6.443,1.1,0.126,0.126,0,0,0,.042.02l-1.446,7.66-0.059-.04a10.243,10.243,0,0,0-5.1-1.2c-6.66,0-10.621,5.84-10.621,11.48,0,4.78,3.167,6.49,6.126,6.49a16.331,16.331,0,0,0,7.738-2l0.084-.05L799,6605.77h-0.017a21.714,21.714,0,0,1-8.958,1.69C781.954,6607.47,776.739,6602.39,776.739,6594.49Zm-13.847,12.34,0.292-1.48a12.974,12.974,0,0,1,1.672-3.61l0.058-.1a0.625,0.625,0,0,0-.309-0.77,0.585,0.585,0,0,0-.794.28l-0.042.12a6.717,6.717,0,0,1-1.963,3.58,10.528,10.528,0,0,1-7.171,2.7c-6.217,0-9.025-5.55-9.025-11.12a24.078,24.078,0,0,1,6.585-16.72,17.8,17.8,0,0,1,12.9-5.32c3.794,0.01,6.6,1.12,8.357,3.26,2.6,3.18,2.39,7.95,1.738,11.41l-3.376,17.77h-8.925Zm0.351-25.31a5.576,5.576,0,0,0-3.819,1.9,17.377,17.377,0,0,0-4.387,11.06c0,3.33,1.22,5.4,3.351,5.4,3.4,0,6.326-3.59,7.337-8.84,0.226-1.17.451-2.36,0.618-3.42a14.345,14.345,0,0,0,.243-2.65C766.477,6582.74,765.324,6581.52,763.243,6581.52Zm46.364,12.19,0.084,0.1a5.949,5.949,0,0,1,1.512,2.28,5.341,5.341,0,0,0,.736,1.67c1.211,1.55,3.359,2.38,6.008,2.38a20.815,20.815,0,0,0,10.9-3.06l0.092-.06-1.5,7.93a27.331,27.331,0,0,1-11.741,2.53c-8.7,0-13.672-4.87-13.672-13.37a21.09,21.09,0,0,1,4.9-13.49,17.412,17.412,0,0,1,13.463-6.23c6.586,0,10.973,3.83,10.973,9.55a8.718,8.718,0,0,1-2.532,6.46c-2.833,2.79-7.947,4.17-15.619,4.22a2.454,2.454,0,0,1-2.591-1.56l-0.067-.1a0.572,0.572,0,0,0-.81-0.04A0.6,0.6,0,0,0,809.607,6593.71Zm12.218-7.86a2.563,2.563,0,0,0,.769-1.9c0-1.64-1.346-2.67-3.36-2.67a7.385,7.385,0,0,0-6.552,4.31c-0.86,1.67-1.161,1.84-1.955,2.34l-0.1.07a0.614,0.614,0,0,0,.777.93l0.083-.09c0.644-.78.794-1.06,3.243-1.17C818.482,6587.51,820.738,6586.95,821.825,6585.85Zm-94.483-8.62a11.407,11.407,0,0,1,7.412-2.87c6.184,0,10.2,4.72,10.2,12.09,0,7.71-3.677,15.63-10.313,19.19-5.148,2.77-9.827,2.14-12.151.33a3.384,3.384,0,0,1-.752-2.04l-0.025-.11a0.6,0.6,0,0,0-1.145.37l0.05,0.11a3.126,3.126,0,0,1,.627,2l-2,10.69h-9.36l7.972-42.17h8.24l-0.276,1.53a7.322,7.322,0,0,1-1.554,3.71l-0.067.11a0.566,0.566,0,0,0,.251.74,0.624,0.624,0,0,0,.811-0.15l0.041-.11A7.536,7.536,0,0,1,727.342,6577.23Zm-3.435,14.86c-0.393,2.08-1.479,8.3,2.808,8.3,4.922,0,8.524-7.03,8.524-13.22,0-1.5-.343-5.13-3.777-5.13C727.985,6582.04,725.044,6586.03,723.907,6592.09Zm-105.355,14.74,0.292-1.48a13,13,0,0,1,1.671-3.61l0.059-.1a0.625,0.625,0,0,0-.309-0.77,0.585,0.585,0,0,0-.794.28l-0.042.12a6.713,6.713,0,0,1-1.964,3.58,10.523,10.523,0,0,1-7.17,2.7c-6.218,0-9.026-5.55-9.026-11.12a24.074,24.074,0,0,1,6.586-16.72,17.8,17.8,0,0,1,12.9-5.32c3.794,0.01,6.6,1.12,8.357,3.26,2.6,3.18,2.39,7.95,1.738,11.41l-3.376,17.77h-8.925Zm0.342-25.31a5.576,5.576,0,0,0-3.819,1.9,17.377,17.377,0,0,0-4.387,11.06c0,3.33,1.22,5.4,3.351,5.4,3.4,0,6.326-3.59,7.337-8.84,0.226-1.17.451-2.36,0.619-3.42a14.331,14.331,0,0,0,.242-2.65C622.128,6582.74,620.975,6581.52,618.894,6581.52Zm13.5,12.97c0-11.43,8.825-20.04,20.541-20.07a17.944,17.944,0,0,1,6.443,1.1,0.126,0.126,0,0,0,.042.02l-1.446,7.66-0.058-.04a10.248,10.248,0,0,0-5.1-1.2c-6.661,0-10.622,5.84-10.622,11.48,0,4.78,3.168,6.49,6.126,6.49a16.328,16.328,0,0,0,7.738-2l0.084-.05-1.488,7.89h-0.016a21.722,21.722,0,0,1-8.959,1.69C637.6,6607.47,632.391,6602.39,632.391,6594.49Zm58.6-9.13c0-6.55,5.541-10.98,13.864-11.01a17.454,17.454,0,0,1,8.056,1.62l0.034,0.02-1.346,7.11-0.058-.04a15.781,15.781,0,0,0-7.137-1.76c-2.424,0-4,1.02-4,2.74,0,1.24,1.2,2.33,3.761,3.58,3.326,1.69,7.1,4.17,7.1,8.65a9.926,9.926,0,0,1-2.875,7.3c-2.541,2.54-6.669,3.93-11.633,3.89-3.811-.06-7.672-1.06-9.6-2.46l-0.025-.02,1.354-7.15,0.058,0.03a19.948,19.948,0,0,0,9.118,2.72c2.314,0,3.877-1.07,3.877-2.8,0-1.56-1.1-2.66-3.894-4.04C693.2,6591.52,690.989,6588.69,690.989,6585.36Zm-95.787-7.34a10.144,10.144,0,0,1,7.605-3.69,10.642,10.642,0,0,1,1.73.14l-1.813,9.22a8.239,8.239,0,0,0-1.463-.14c-6.351,0-8.825,6.24-9.794,11.42l-2.256,12.18h-9.36l6.067-32.12h8.231l-0.417,2.23a10.148,10.148,0,0,1-1.421,3.83l-0.059.1a0.614,0.614,0,0,0,1.1.51l0.041-.11A8.388,8.388,0,0,1,595.2,6578.02ZM835.3,6599.93a4,4,0,0,0-3.886,3.6,3.115,3.115,0,0,0,3.151,3.49,4.013,4.013,0,0,0,3.894-3.59A3.129,3.129,0,0,0,835.3,6599.93Zm-0.735,7.64a3.668,3.668,0,0,1-3.7-4.1,4.553,4.553,0,0,1,4.437-4.1,3.675,3.675,0,0,1,3.711,4.1A4.568,4.568,0,0,1,834.561,6607.57Zm1.7-1.73h-0.7l-0.61-1.82-0.4.01h-0.468l-0.334,1.81h-0.6l0.895-4.82h1.044c0.268,0,.443,0,0.577.01a1.956,1.956,0,0,1,.451.1,1.137,1.137,0,0,1,.811,1.12,1.857,1.857,0,0,1-.025.28,1.709,1.709,0,0,1-1.279,1.38Zm-0.753-4.2c-0.117-.01-0.994-0.01-0.994-0.01l-0.334,1.81s0.869-.01.986-0.01a1.674,1.674,0,0,0,.342-0.06,1.091,1.091,0,0,0,.794-0.84,0.689,0.689,0,0,0-.484-0.83A1.2,1.2,0,0,0,835.513,6601.64Zm-160.887-37.77-4.83,25.59,12.444-14.45h10.212l-12.887,14.62,7.848,17.13H677.367l-7.6-17-3.209,17h-9.293l8.106-42.9h9.259v0.01ZM540.665,6555c-13.8,17.05-19.672,39.19-18.853,58.94-8.156-3.29-14.123-11.2-14.75-21.24l-0.008-.12c-1.02-17.81,13.078-36.04,31.5-40.73a31,31,0,0,1,19.555.98,48.074,48.074,0,0,1-5.081,10.13c-4.078,6.1-9.936,9.95-13.078,8.59s-2.382-7.4,1.7-13.5a28.741,28.741,0,0,1,3.067-3.83A37.521,37.521,0,0,0,540.665,6555Zm1.346,7.94c-1.321,2.8-.794,5.1,1.17,5.14s4.638-2.21,5.966-5.02,0.794-5.1-1.169-5.14S543.331,6560.13,542.011,6562.94Zm3.76-18.87c15.436-.94,27.687,9.16,28.589,24.79,1.028,17.79-13.045,36-31.438,40.73a31.819,31.819,0,0,1-17.5-.21c-0.376-7.02.986-14.34,3.97-19.45,4.872-8.33,12.243-7.62,16.463,1.58a33.924,33.924,0,0,1,2.766,11.93,41.558,41.558,0,0,0,4.27-2.63c-4.562-11.14-6.593-24.33,9.745-47.51-4.756-3.82-12.059-5.68-21.177-4.49C542.8,6547.21,544.242,6545.64,545.771,6544.07Z" transform="translate(-507 -6544)"/>
</svg>
