<?xml version="1.0" encoding="UTF-8"?>
<svg width="22px" height="20px" viewBox="0 0 22 20" version="1.1" xmlns="http://www.w3.org/2000/svg" xmlns:xlink="http://www.w3.org/1999/xlink">
    <!-- Generator: Sketch 46 (44423) - http://www.bohemiancoding.com/sketch -->
    <title>Pinhead</title>
    <desc>Created with Sketch.</desc>
    <defs></defs>
    <g id="Symbols" stroke="none" stroke-width="1" fill="none" fill-rule="evenodd">
        <g id="Icon-/-Social-/-Green-/-Linux-Academy" transform="translate(-1.000000, -2.000000)" fill="#1BB398">
            <path d="M22,6.71808317 L22,10 L21,10 L21,7.15565366 L19.3845518,7.8625261 C20.4030318,9.31932744 21,11.0902679 21,13.0001659 C21,13.0497567 20.9936689,13.0995135 20.9936689,13.1489385 L20.9936689,19.5106701 L18.1268443,19.5614219 C16.5090801,21.0736953 14.3171847,22 11.9226939,22 C9.52820304,22 7.39162147,21.0736953 5.77385735,19.5614219 L3,19.5106701 L3,13.0001659 L3,13.0021561 L3,13.0001659 C3,11.0616752 3.60352292,9.26633388 4.63604682,7.79730958 L1,6.28051269 L12.263835,2.01867643 L12.263835,2 L12.263332,2.00957363 L12.263835,2 L12.263835,2.01946116 L23,6.28051269 L22,6.71808317 Z M5.48208699,8.15023987 C4.54893001,9.37702591 4,10.8784393 4,12.5000798 C4,16.6421889 7.58166012,20 11.9999149,20 C16.4181696,20 20,16.6421889 20,12.5000798 C20,10.9086606 19.4713142,9.43302909 18.5696272,8.21911308 L12.263835,10.9783416 L12.263835,11 L12.263332,10.9894847 L12.263835,11 L12.263835,10.9792833 L5.48208699,8.15023987 Z M12.526258,13 L14,13.9869581 L12.526258,17 L11,13.9869581 L12.526258,13 Z M8.5,12 C8.77617098,12 9,12.2238863 9,12.5 C9,12.7761137 8.77617098,13 8.5,13 C8.223957,13 8,12.7761137 8,12.5 C8,12.2238863 8.223957,12 8.5,12 Z M15.5,12 C15.776171,12 16,12.2238863 16,12.5 C16,12.7761137 15.776171,13 15.5,13 C15.223957,13 15,12.7761137 15,12.5 C15,12.2238863 15.223957,12 15.5,12 Z" id="Pinhead"></path>
        </g>
    </g>
</svg>