<svg xmlns="http://www.w3.org/2000/svg" width="254" height="189" viewBox="0 0 254 189">
  <defs>
    <style>
      .cls-1 {
        fill: #fff;
        fill-rule: evenodd;
      }
    </style>
  </defs>
  <path id="logo-university-of-alaska" class="cls-1" d="M137.677,6364.43v0.43c-2.612.29-2.784,1.9-2.9,5.71l-0.175,6.31c-0.083,3.73-1.665,7.5-8.048,7.5-8.912,0-7.991-6.46-7.991-8.76v-6.46c-0.085-2.98-.111-3.84-3.563-4.3v-0.43h9.917v0.43c-3.765.55-3.824,1.12-3.824,4.3v5.91c0,0.55-.917,7.99,6.955,7.99,6.212,0,5.606-5.94,5.606-9.46v-3.03c0-3.66-.286-5.34-4.311-5.71v-0.43h8.334m28.053,15.08-0.143-10.53c-0.029-2.74-.777-3.54-4.024-4.12v-0.43h7.849v0.43c-1.985.26-2.36,1.35-2.591,3.23-0.4,3.17-.259,10.12-0.111,16.41l-0.375.09c-4.6-5.46-9.716-10.5-14.573-15.75v5.31c0,7.15-.176,8.62,4,9.45v0.44h-8.6v-0.44c3.88-.4,3.737-3.05,3.737-9.6v-4.32c0-2.89-.458-4.01-4.108-4.82v-0.43h4.741l14.2,15.08m19.227-.2c0.088,2.97.115,3.84,3.565,4.29v0.44h-9.657v-0.44c3.447-.45,3.474-1.32,3.562-4.29v-10.15c-0.088-2.98-.115-3.84-3.562-4.3v-0.43h9.657v0.43c-3.45.46-3.477,1.32-3.565,4.3v10.15m33.543-14.88v0.43c-2.7.23-3.535,2.51-5.321,6.69l-5.486,13.15h-0.406l-6.494-15.6c-0.865-2.11-1.521-3.95-4.083-4.24v-0.43h9.111v0.43c-4.051.4-2.728,2.71-1.984,4.52l4.6,11.14,3.391-8.16c2.474-5.92,2.931-6.87-1.435-7.5v-0.43h8.1m8.046,19.17c3.451-.45,3.479-1.32,3.567-4.29v-10.15c-0.088-2.98-.116-3.84-3.567-4.3v-0.43h15.439l-0.347,4.44h-0.43c-0.2-3.72-2.877-3.75-5.776-3.75h-2.79v8.22h2.987c2.156,0,3.8-.17,4.113-2.66h0.43v6.44h-0.43c-0.374-2.54-1.957-2.57-4.113-2.57h-2.987v4.73c0,1.7-.4,4.07,4.31,4.07,3.623,0,5.4-1.39,6.125-5.02h0.43a18.243,18.243,0,0,1-.976,5.71H226.546v-0.44m30.555-4.29c-0.084,2.97-.116,3.84-3.562,4.29v0.44h10.088v-0.44c-3.937-.54-4-1.12-4-4.29v-4.65c2.01,0.35,3.047-.34,4.2,2.05a25.229,25.229,0,0,0,4,5.77c1.663,1.73,3.907,1.64,6.95,1.79l0.089-.43c-4.741-.98-7.5-5.94-9.715-9.84l-0.145-.2c2.07-.92,3.565-2.31,3.565-4.73,0-1.38-.574-4.93-7.816-4.7l-7.017.23v0.4c3.219,0.29,3.363.96,3.363,5.37v8.94m2.53-14.34c3.019-.03,5.979,1.33,5.979,4.71,0,3.2-3.22,4.47-5.979,4.5v-9.21Zm33.6,4.53h-0.456c-0.463-2.33-1.206-4.59-4.051-4.59a3.189,3.189,0,0,0-3.363,3.18c0,4.99,9.051,4.82,9.051,10.64,0,3.72-3.676,5.65-6.984,5.65a9.51,9.51,0,0,1-5.06-1.47l-0.833-4.9h0.52c0.717,2.77,2.64,5.51,5.8,5.51,2.127,0,3.8-1.27,3.8-3.52,0-5.13-8.8-4.67-8.8-10.44,0-3.38,3.333-5.51,6.41-5.51a8.757,8.757,0,0,1,4.193,1.13l-0.232,4.32m17.62,9.81c0.088,2.97.116,3.84,3.563,4.29v0.44h-9.66v-0.44c3.452-.45,3.479-1.32,3.567-4.29v-10.15c-0.088-2.98-.115-3.84-3.567-4.3v-0.43h9.66v0.43c-3.447.46-3.475,1.32-3.563,4.3v10.15m30.956-15.78h0.228l0.4,5.4-0.4.08c-1.006-3.57-2.587-3.72-5.894-3.72h-1.719v13.33c0,3.57.166,4.53,4.023,4.98v0.44H327.861v-0.44c3.855-.45,4.024-1.41,4.024-4.98v-13.33h-1.726c-3.3,0-4.883.15-5.89,3.72l-0.4-.08,0.4-5.4H324.5l0.285,0.26a1.831,1.831,0,0,0,1.787.64h13.162a1.83,1.83,0,0,0,1.786-.64l0.286-.26m27.192,0.9v0.43c-2.5.2-3.737,1.58-4.946,3.66l-3.393,6.75v3.26c0.059,3.32.116,4.5,3.8,5.07v0.44h-10.12v-0.44c3.677-.57,3.737-1.75,3.793-5.07v-2.31l-2.988-6.54c-1.092-2.43-1.867-4.48-4.769-4.82v-0.43H358.3v0.43c-2.358.32-2.042,1.27-1.123,3.29l2.876,6.23,2.5-4.76c1.782-3.35,1.552-4.44-.95-4.76v-0.43H369M151.013,6404.4c-2.9,0-4.712,3.9-4.712,6.45,0,1.44.422,2.53,1.98,2.53,2.885,0,4.677-3.75,4.677-6.26,0-1.31-.37-2.72-1.945-2.72m-0.365.39c0.769,0,.848,1.16.848,1.72,0,2.42-1.6,6.48-2.924,6.48-0.753,0-.809-1.16-0.809-1.7C147.763,6409.15,149.262,6404.79,150.648,6404.79Zm15.08,0.65-0.2.77h-2.557l-1.288,5.77a13.87,13.87,0,0,1-1.442,4.14,4.9,4.9,0,0,1-2.944,1.75c-1.422,0-1.768-1.41-.79-1.99a4.673,4.673,0,0,0,1.905,1.05c0.945,0,1.442-2.57,1.594-3.36l1.5-7.36h-1.593l0.091-.42,1.713-.48c0.617-2.44,2.287-5.56,5.171-5.56a1.606,1.606,0,0,1,1.869,1.41,1.543,1.543,0,0,1-1.17,1.43l-0.157-.12v-0.44a1.451,1.451,0,0,0-1.266-1.7c-1.717,0-2.638,3.41-3,5.11h2.562m31.1-.54c0.745,2.02,1.836,4.73,1.836,5.94,0,1.3-1.207,1.62-2.211,1.85v0.43h8.45v-0.43c-2.3-.43-2.788-1.27-3.562-3.38l-6.326-16.9a5.249,5.249,0,0,1-2.1,1.56c0.318,0.55-.056,1.24-0.315,1.99l-1.725,4.71-3.247,8.5c-0.892,2.25-1.152,2.83-3.71,3.52v0.43H191.8v-0.43c-1.294-.2-3.275-0.2-3.275-1.96,0-1.39,1.263-4.38,1.753-5.83h6.554m-0.375-1.32h-5.693l2.7-7.5Zm16.669,9.11c3.451-.46,3.478-1.32,3.567-4.3v-10.15c-0.089-2.97-.116-3.84-3.567-4.3v-0.43h9.659v0.43c-3.45.46-3.562,1.33-3.562,4.3v9.46a14.9,14.9,0,0,0,.429,4.36l3.507,0.26c4.371,0.31,5.088-1.04,7.3-4.74l0.372,0.18-1.638,5.36H213.127v-0.43m37.738-7.79c0.749,2.02,1.845,4.73,1.845,5.94,0,1.3-1.211,1.62-2.215,1.85v0.43h8.448v-0.43c-2.3-.43-2.786-1.27-3.562-3.38l-6.324-16.9a5.248,5.248,0,0,1-2.1,1.56c0.319,0.55-.055,1.24-0.313,1.99l-1.722,4.71-3.252,8.5c-0.891,2.25-1.146,2.83-3.708,3.52v0.43h7.876v-0.43c-1.291-.2-3.279-0.2-3.279-1.96,0-1.39,1.267-4.38,1.757-5.83h6.55m-0.37-1.32h-5.69l2.7-7.5Zm28.171-4.99H278.2c-0.462-2.34-1.207-4.59-4.051-4.59a3.193,3.193,0,0,0-3.367,3.18c0,4.98,9.056,4.81,9.056,10.64,0,3.72-3.676,5.65-6.984,5.65a9.507,9.507,0,0,1-5.06-1.47l-0.833-4.9h0.52c0.716,2.76,2.644,5.5,5.8,5.5,2.128,0,3.8-1.27,3.8-3.52,0-5.13-8.8-4.67-8.8-10.44,0-3.37,3.334-5.5,6.409-5.5a8.888,8.888,0,0,1,4.2,1.12l-0.227,4.33m30.606-5.08v0.43c-3.28.35-5.464,3.15-7.59,5.37l-2.7,2.88,5.838,6.46a13.933,13.933,0,0,0,6.378,4.39l-0.144.43c-5-.4-5.805-0.55-8.5-3.52l-5.87-6.4,4.631-5.05c3.018-3.4,2.445-4.36.516-4.56v-0.43h7.448m-12.993,14.88c0.085,2.98.117,3.84,3.822,4.3v0.43h-9.917v-0.43c3.451-.46,3.478-1.32,3.566-4.3v-10.15c-0.088-2.97-.115-3.84-3.566-4.3v-0.43h9.139v0.43c-2.927.46-2.959,1.33-3.044,4.3v10.15Zm33.342-3.49c0.746,2.02,1.842,4.73,1.842,5.94,0,1.3-1.207,1.62-2.214,1.85v0.43H337.7v-0.43c-2.3-.43-2.784-1.27-3.565-3.38l-6.318-16.9a5.27,5.27,0,0,1-2.1,1.56c0.32,0.55-.056,1.24-0.314,1.99l-1.724,4.71-3.249,8.5c-0.892,2.25-1.152,2.83-3.711,3.52v0.43h7.878v-0.43c-1.291-.2-3.274-0.2-3.274-1.96,0-1.39,1.263-4.38,1.747-5.83h6.558m-0.372-1.32h-5.7l2.707-7.5Zm-172.362,28h-0.033l-5.668,8.24a0.888,0.888,0,0,1-.413.45c-0.16,0-.128-0.16-0.142-0.27l-0.032-.35-0.6-8.21h-0.032l-2.271,6.01c-0.777,2.07-.508,1.81,1.556,2.39l-0.062.24h-4.447l0.063-.24c1.508-.45,1.556-0.42,2.319-2.39l1.937-5.15c0.746-2.17.794-2.44-1.493-2.82l0.064-.24h3.494l0.762,8.57,3.875-5.54a15.593,15.593,0,0,0,1.746-3.03h3.145l-0.065.24c-2.174.35-2.079,1.1-2.731,3.65l-1.1,4.32c-0.492,1.91-.333,1.92,1.541,2.39l-0.063.24h-5.416l0.063-.24c1.891-.18,2.193-1.12,2.51-2.39l1.493-5.87m9.669,2.06c0.111-.29.349-0.97-0.206-0.97-0.381,0-.651.78-0.794,1.05a4.069,4.069,0,0,0-1.763-.85,3.654,3.654,0,0,0-1.763.77,4.1,4.1,0,0,0-1.158,1.72,22.829,22.829,0,0,0-1.256,4.35,0.776,0.776,0,0,0,.715.57c0.922,0,2.748-2.42,4.574-4.86l0.032,0.03-1.524,4.47c-0.081.24,0.38,0.36,0.6,0.36,1.223,0,2.921-2.21,3.525-3.07l-0.206-.15a7.361,7.361,0,0,1-2.589,2l1.81-5.42m-5.684,5.45c0.27-1.28,1.461-5.53,2.207-5.53a6.474,6.474,0,0,1,1.858,1.08,15.518,15.518,0,0,1-3.906,4.54Zm13.336-3.62c0.143-.37.856-1.91,0.127-1.91-1.239,0-4.336,6.72-5.272,6.72-0.763,0-.081-1.57.03-1.86l1.732-4.59a3.545,3.545,0,0,0-2.16,1.85l-0.174-.11c0.285-1.1,1.3-2.7,2.572-2.7a0.972,0.972,0,0,1,.969.58l-1.779,4.68,0.033,0.03,0.745-1.17c0.7-1.07,2.477-4.12,3.844-4.12,1.444,0,.762,1.96.475,2.71l-1.286,3.43,0.049,0.08a11.67,11.67,0,0,0,2.317-1.95l0.176,0.18c-0.588.91-2.366,2.96-3.462,2.96-0.779,0-.287-1.21-0.143-1.56l1.207-3.25m3.316,0.73c-0.032-.82.571-3.33,1.619-3.33,1.4,0,1.683,4.62,1.652,6.14l0.031,0.03a13.428,13.428,0,0,0,1.288-4.72c0.03-.46-0.017-1.45.65-1.45a0.538,0.538,0,0,1,.524.58c0,1.34-1.842,5.03-2.555,6.27-0.573.99-2.717,4.27-4.051,4.27a0.767,0.767,0,0,1-.777-0.82,0.8,0.8,0,0,1,.777-0.78,1.06,1.06,0,0,1,.779.65,6.418,6.418,0,0,0,2.255-2.36c0.222-2.87-.318-6.55-0.906-6.55-0.412,0-.953,1.83-1.064,2.12l-0.222-.05m21.7-6.96-0.81,2.73-0.206-.05c0-2.04-.175-2.2-1.541-2.2h-1.857l-1.906,7.73c-0.476,1.91-.333,1.92,1.746,2.39l-0.063.24h-5.542l0.064-.24c1.811-.18,2.112-1.12,2.429-2.39l1.907-7.73h-1.589c-1.763,0-2.3.84-3.128,2.25l-0.222-.05,0.682-2.68h10.036m-0.141,9.39,0.031,0.03,1.922-3.46c0.4-.65,1.382-2.33,2.224-2.33a0.662,0.662,0,0,1,.65.75,1.64,1.64,0,0,1-1.286,1.58l-0.095-.14c0.079-.16.412-0.96-0.016-0.96-0.6,0-2.922,4.37-3.288,5.08a1.645,1.645,0,0,1-1,1.1c-0.81,0-.176-1.35-0.065-1.65l1.589-4.85a3.761,3.761,0,0,0-2.112,1.72l-0.207-.12c0.429-1.01,1.287-2.51,2.541-2.51a0.808,0.808,0,0,1,.81.58l-1.7,5.18m11.781-4.99c0.112-.29.35-0.97-0.206-0.97-0.381,0-.65.78-0.793,1.05a4.074,4.074,0,0,0-1.763-.85,3.65,3.65,0,0,0-1.763.77,4.078,4.078,0,0,0-1.159,1.72,22.825,22.825,0,0,0-1.255,4.35,0.777,0.777,0,0,0,.714.57c0.922,0,2.748-2.42,4.574-4.86l0.032,0.03-1.524,4.47c-0.08.24,0.381,0.36,0.6,0.36,1.221,0,2.921-2.21,3.524-3.07l-0.206-.15a7.343,7.343,0,0,1-2.589,2l1.81-5.42m-5.684,5.45c0.27-1.28,1.46-5.53,2.207-5.53a6.447,6.447,0,0,1,1.858,1.08,15.507,15.507,0,0,1-3.907,4.54Zm15.591-10.36-0.286-.16-2.191.96-0.08.33c1,0.53.841,0.43,0.746,0.94l-0.714,2.65a3.025,3.025,0,0,0-1.461-.58,3.6,3.6,0,0,0-2.4,1.41,16.487,16.487,0,0,0-1.842,5.49,0.828,0.828,0,0,0,.747.51,5.653,5.653,0,0,0,2.08-1.62l2.3-2.95,0.065,0.06-1.112,3.35c-0.111.37-.382,1.16,0.3,1.16,1.286,0,2.747-1.89,3.478-2.91l-0.191-.13a10.92,10.92,0,0,1-2.351,1.94l-0.143-.09,3.05-10.36m-6.924,10.36c0.889-2.93,1.557-5.44,2.192-5.44a4.281,4.281,0,0,1,1.779.98c-1.065,1.59-2.129,3.49-3.813,4.55Zm11.8-9.4a0.805,0.805,0,0,1-.778.84,0.734,0.734,0,0,1-.746-0.75,0.8,0.8,0,0,1,.795-0.86,0.7,0.7,0,0,1,.729.77m-0.222,7.57c-0.618,1.02-1.985,3.02-3.3,3.02a0.554,0.554,0,0,1-.555-0.6c0-.83,1.365-3.94,2.049-5.63l-0.111-.11a7.412,7.412,0,0,0-1.97,1.74l-0.191-.11c0.493-1.13,1.921-2.7,2.954-2.7a0.492,0.492,0,0,1,.509.55c0,0.9-1.286,3.55-2.065,5.7l0.111,0.05a10.672,10.672,0,0,0,2.366-2.04Zm6.477-4.02-0.239.64h-2.286l-1.571,5.16,0.109,0.13a8.717,8.717,0,0,0,2.6-2.06l0.208,0.18c-0.636.99-2.43,2.99-3.668,2.99a0.739,0.739,0,0,1-.588-0.54,2.978,2.978,0,0,1,.142-0.56l1.684-5.3h-1.652l0.192-.48,1.682-.27c0.238-.54.524-1.74,0.969-1.74,0.556,0,.556.15,0.4,0.62l-0.318,1.12,2.335,0.11m3.792,3.89a10.649,10.649,0,0,1-2.366,2.04l-0.111-.05c0.779-2.15,2.065-4.8,2.065-5.7a0.491,0.491,0,0,0-.509-0.55c-1.031,0-2.46,1.57-2.953,2.7l0.19,0.11a7.412,7.412,0,0,1,1.97-1.74l0.111,0.11c-0.683,1.69-2.049,4.8-2.049,5.63a0.554,0.554,0,0,0,.557.6c1.318,0,2.683-2,3.3-3.02l-0.207-.13m-0.3-8.21a0.8,0.8,0,0,0-.794.86,0.735,0.735,0,0,0,.747.75,0.806,0.806,0,0,0,.778-0.84A0.7,0.7,0,0,0,235.39,6428.92Zm5.46,3.95c-2.4,0-3.89,3.22-3.89,5.32,0,1.2.349,2.09,1.635,2.09,2.383,0,3.858-3.09,3.858-5.16,0-1.08-.3-2.25-1.6-2.25m-0.3.32c0.634,0,.7.96,0.7,1.42,0,2.01-1.318,5.35-2.414,5.35-0.619,0-.666-0.95-0.666-1.4C238.167,6436.79,239.405,6433.19,240.549,6433.19Zm8.765,2.28c0.141-.37.856-1.91,0.125-1.91-1.237,0-4.334,6.72-5.271,6.72-0.762,0-.08-1.57.031-1.86l1.732-4.59a3.545,3.545,0,0,0-2.16,1.85l-0.174-.11c0.285-1.1,1.3-2.7,2.572-2.7a0.969,0.969,0,0,1,.967.58l-1.777,4.68,0.031,0.03,0.747-1.17c0.7-1.07,2.477-4.12,3.844-4.12,1.444,0,.762,1.96.475,2.71l-1.286,3.43,0.048,0.08a11.676,11.676,0,0,0,2.318-1.95l0.174,0.18c-0.587.91-2.366,2.96-3.462,2.96-0.777,0-.285-1.21-0.143-1.56l1.209-3.25m5.857,0.7a4.745,4.745,0,0,1,.619,1.77c0,1.07-1.588,2.34-2.6,2.34a1.184,1.184,0,0,1-1.286-.95,0.829,0.829,0,0,1,.81-0.74,2.077,2.077,0,0,0,1.286.96,0.805,0.805,0,0,0,.682-0.97,4.614,4.614,0,0,0-.618-1.72,4.729,4.729,0,0,1-.636-1.8c0-1.25,1.589-2.19,2.715-2.19a1.025,1.025,0,0,1,.986.78,1.142,1.142,0,0,1-.843.74,2.787,2.787,0,0,0-1.221-.85,0.637,0.637,0,0,0-.525.72,4.73,4.73,0,0,0,.636,1.91m13.188-7.14a6.616,6.616,0,0,0-6.368,6.7,4.311,4.311,0,0,0,4.415,4.55,6.5,6.5,0,0,0,6.51-6.48,4.414,4.414,0,0,0-4.557-4.77m0.144,0.39c2.017,0,2.762,1.94,2.762,3.68,0,2.56-1.92,6.8-4.907,6.8-1.952,0-2.715-1.88-2.715-3.6C263.643,6432.4,266.152,6429.42,268.5,6429.42Zm10.651,6.05c0.144-.37.857-1.91,0.127-1.91-1.238,0-4.336,6.72-5.272,6.72-0.762,0-.079-1.57.032-1.86l1.731-4.59a3.549,3.549,0,0,0-2.161,1.85l-0.174-.11c0.287-1.1,1.3-2.7,2.573-2.7a0.969,0.969,0,0,1,.968.58l-1.777,4.68,0.031,0.03,0.746-1.17c0.7-1.07,2.478-4.12,3.843-4.12,1.446,0,.763,1.96.477,2.71l-1.286,3.43,0.047,0.08a11.71,11.71,0,0,0,2.319-1.95l0.174,0.18c-0.587.91-2.366,2.96-3.462,2.96-0.778,0-.285-1.21-0.143-1.56l1.207-3.25m7.97-.6a1.537,1.537,0,0,0,.793-0.85,1.565,1.565,0,0,0-1.286-1.15,4.972,4.972,0,0,0-3.017,2.04,12.192,12.192,0,0,0-1.048,4.45,1.028,1.028,0,0,0,.842.92c1.318,0,3.128-1.51,3.955-2.75l-0.255-.16a5.8,5.8,0,0,1-3.017,1.92c-0.8,0-.144-1.99-0.033-2.39l3.066-2.03m-2.907,1.45c0.127-.56.636-2.76,1.478-2.76a1.13,1.13,0,0,1,.967.84,1.175,1.175,0,0,1-.682.77Zm16.272,1.14c0,1.71-.157,2.11-1.937,2.38l-0.063.24h5.335l0.064-.24c-2.064-.16-1.985-0.83-2.082-2.65l-0.3-5.54-0.048-1.44v-1.18l-0.19-.11a2.844,2.844,0,0,1-1.176.42,4.515,4.515,0,0,1-.682,1.29l-3.939,5.83c-1.128,1.67-1.89,3.07-4,3.38l-0.063.24h4.906l0.064-.24c-0.4-.1-1.429-0.26-1.429-0.8a12.6,12.6,0,0,1,1.587-3.04l0.254-.42h3.669l0.032,1.88m-0.1-2.63H297.3l2.936-4.41Zm5.539,4.15,0.127,0.11a9.878,9.878,0,0,0,2.319-1.8l0.19,0.16c-0.508.87-2.445,2.83-3.446,2.83a0.5,0.5,0,0,1-.46-0.56,3.873,3.873,0,0,1,.254-1.05l2.461-7.87c0.095-.51.254-0.41-0.746-0.94l0.079-.33,2.193-.96,0.285,0.16-3.256,10.25m10.018-5.34c0.109-.29.349-0.97-0.207-0.97-0.381,0-.651.78-0.794,1.05a4.067,4.067,0,0,0-1.764-.85,3.647,3.647,0,0,0-1.761.77,4.081,4.081,0,0,0-1.16,1.72,22.893,22.893,0,0,0-1.254,4.35,0.775,0.775,0,0,0,.715.57c0.92,0,2.747-2.42,4.572-4.86l0.032,0.03-1.523,4.47c-0.08.24,0.379,0.36,0.6,0.36,1.222,0,2.923-2.21,3.526-3.07l-0.207-.15a7.345,7.345,0,0,1-2.587,2l1.81-5.42m-5.686,5.45c0.271-1.28,1.461-5.53,2.208-5.53a6.443,6.443,0,0,1,1.857,1.08,15.5,15.5,0,0,1-3.906,4.54Zm9.986-2.92a4.728,4.728,0,0,1,.619,1.77c0,1.07-1.587,2.34-2.6,2.34a1.184,1.184,0,0,1-1.286-.95,0.829,0.829,0,0,1,.809-0.74,2.082,2.082,0,0,0,1.286.96,0.805,0.805,0,0,0,.683-0.97,4.614,4.614,0,0,0-.618-1.72,4.729,4.729,0,0,1-.636-1.8c0-1.25,1.588-2.19,2.716-2.19a1.024,1.024,0,0,1,.984.78,1.141,1.141,0,0,1-.842.74,2.79,2.79,0,0,0-1.222-.85,0.636,0.636,0,0,0-.524.72,4.713,4.713,0,0,0,.635,1.91m6.016-7.44-0.288-.16-2.19.96-0.079.33c1,0.53.841,0.43,0.745,0.94l-2.223,8.11c-0.079.27-.46,1.37,0.208,1.37,0.46,0,.919-1.32,2.572-2.72-0.033.83,0.079,2.72,1.237,2.72,0.747,0,1.7-1.02,2.16-1.56l-0.174-.19a3.313,3.313,0,0,1-1.319.91c-0.92,0-.92-1.91-0.809-2.84,1.064-.54,2.35-1.19,2.35-2.55a1.081,1.081,0,0,0-.969-1.18c-1.429,0-3,2.57-3.588,3.73l-0.1-.08,2.462-7.79m-3.066,10.02c0.048-.08,2.207-4.92,3.51-4.92a0.562,0.562,0,0,1,.555.62,2.324,2.324,0,0,1-1.207,1.82,13.942,13.942,0,0,0-2.779,2.55Zm13.068-5.11c0.111-.29.35-0.97-0.206-0.97-0.381,0-.651.78-0.8,1.05a4.055,4.055,0,0,0-1.762-.85,3.639,3.639,0,0,0-1.761.77,4.071,4.071,0,0,0-1.16,1.72,22.752,22.752,0,0,0-1.255,4.35,0.776,0.776,0,0,0,.714.57c0.922,0,2.749-2.42,4.575-4.86l0.031,0.03-1.524,4.47c-0.08.24,0.38,0.36,0.6,0.36,1.224,0,2.922-2.21,3.525-3.07l-0.206-.15a7.367,7.367,0,0,1-2.588,2l1.809-5.42m-5.684,5.45c0.27-1.28,1.46-5.53,2.208-5.53a6.469,6.469,0,0,1,1.857,1.08,15.518,15.518,0,0,1-3.906,4.54Zm-215.506-15.78h253.8M232.2,6298.79a76.3,76.3,0,0,0,13.416,9.67c12.375-12.36,27.662-14.53,33.517-14.9A69.078,69.078,0,0,0,232.2,6298.79Zm47.823,18.32v-23.35c-14.275,2.58-24.648,8.55-32.18,15.9A67.347,67.347,0,0,0,280.021,6317.11Zm-48.8-17.84c-14.306,7.26-24.919,18.34-31.789,27.22v-0.61c10.011-13.99,20.357-22.77,30.262-28.17a65.989,65.989,0,0,1-8.128-10.2,94.889,94.889,0,0,0,8.967,9.75,61.637,61.637,0,0,1,49.484-4V6255h-80.6v87.69h29.893c2.583-15.19,8.308-25.72,15.085-32.98A74.533,74.533,0,0,1,231.225,6299.27Zm15.313,11.71c-9.566,9.97-14.233,22.13-16.512,31.71h50v-23.61A61.076,61.076,0,0,1,246.538,6310.98Z" transform="translate(-115 -6255)"/>
</svg>
