<svg xmlns="http://www.w3.org/2000/svg" width="140.03" height="55" viewBox="0 0 140.03 55">
  <defs>
    <style>
      .cls-1 {
        fill: #fff;
        fill-rule: evenodd;
      }
    </style>
  </defs>
  <path id="mediatemple_logo_small" data-name="mediatemple logo small" class="cls-1" d="M944.234,6580.7v3.31h0.2c5.954-3.58,12.1-3.86,15.777-3.86,9.919,0,13.294,2.82,14.585,3.86,2.276-1.32,7.237-3.86,15.669-3.86,16.868,0,16.868,6.63,16.868,9.31v15.63H993.736v-13.92c0-2.88,0-6.08-7.243-6.08-3.569,0-7.241,1.08-8.528,2.68-1.191,1.36-1.688,2.59-1.688,5.6v11.72H962.686v-13.37c0-4.14.094-6.63-7.042-6.63-3.574,0-7.242.94-8.632,2.35-1.09,1.08-1.791,2.21-1.791,5.8v11.85H931.639V6580.7h12.6Zm95.866,5.41h-9.86v9.76c0,3.45,0,4.58,4.03,4.58a28.358,28.358,0,0,0,5.41-.56l0.42-.05,1.27,4.96a69.112,69.112,0,0,1-11.45.98c-4.45,0-10.18-.66-12.3-2.47-1.8-1.5-2.01-2.95-2.01-6.65v-10.55h-6.68v-5.1h6.68v-4.82l14.63-3.78v8.6h9.86v5.1Zm-115.112,32.77c-5.407-8.13-8.988-17.79-8.988-27.51,0-11.46,4.527-20.82,9.1-27.39h5.465c-4.054,8.96-6.813,16.56-6.813,27.63,0,12.69,4.516,22.48,6.575,26.91a1.17,1.17,0,0,1,.181.36h-5.521Zm122.052-54.77c5.41,8.12,8.99,17.79,8.99,27.5,0,11.47-4.52,20.82-9.1,27.39h-5.46c4.05-8.97,6.81-16.57,6.81-27.63,0-12.7-4.52-22.47-6.58-26.91a1.022,1.022,0,0,1-.17-0.35h5.51Z" transform="translate(-916 -6564)"/>
</svg>
