<svg xmlns="http://www.w3.org/2000/svg" width="331" height="81" viewBox="0 0 331 81">
  <defs>
    <style>
      .cls-1 {
        fill: #fff;
        fill-rule: evenodd;
      }
    </style>
  </defs>
  <path id="mailchimp_logo" data-name="mailchimp logo" class="cls-1" d="M1732.9,6586.32v0h0Zm222.48,20.15h0.11c6.7,0,11.42-4.64,11.47-11.27a13.344,13.344,0,0,0-2.68-8.47,9.378,9.378,0,0,0-7.49-3.55h-0.06c-4.12,0-7.95,3.12-11.7,9.55l-0.29.51-0.2-.56c-0.94-2.76-1.79-5.05-2.29-6.42-0.35-.96-0.51-1.39-0.55-1.53a1.508,1.508,0,0,0-1.55-1.12,2.811,2.811,0,0,0-1.47.46,1.747,1.747,0,0,0-.84,1.17l-0.02.08c-3.76,11.69-6.85,17.37-9.47,17.37a1.167,1.167,0,0,1-.9-0.37c-0.69-.76-0.52-2.57-0.29-5.06a46.7,46.7,0,0,0,.29-6.12c-0.16-4.23-2.48-6.77-6.21-6.8-4.74,0-7.81,5.04-9.22,8.04l-0.42.9-0.1-.99c-0.35-3.72-1.6-8.16-5.55-8.19-4.6,0-8.1,5.4-10.24,9.93l-0.57,1.21,0.05-1.34c0.26-6.04.47-9.61,0.62-10.59a2.517,2.517,0,0,0-.25-2.04,2.069,2.069,0,0,0-1.74-.44c-1.47.09-2.22,0.99-3.36,3.99-1.86,4.93-6.6,16.41-10.38,16.41a2.272,2.272,0,0,1-1.78-.76c-1.59-1.82-.95-6.73-0.08-13.53l0.07-.52c0.42-3.22-.29-3.9-2.04-4.22a2.608,2.608,0,0,0-.53-0.06c-1.4,0-2.06,1.34-3.36,5.06-2.32,6.61-5.31,13.57-8.8,13.57a1.722,1.722,0,0,1-.39-0.04c-1.85-.31-1.81-3.05-1.75-6.53a38.16,38.16,0,0,0-.24-5.93c-0.52-3.46-2.55-5.61-5.31-5.63-5.5,0-9.21,7.03-10.93,11.23l-0.4.95-0.13-1.02c-0.23-1.82-.53-4.7-0.66-8.11l-0.01-.1,0.06-.08c10.3-12.95,14.92-22.29,14.98-30.29,0.04-5.12-2.32-8.19-6.32-8.22-2.92,0-9.86,2.43-12.28,24.95-0.44,4.17-.69,8.45-0.73,12.72v0.08l-0.04.07c-4.71,6.81-14.77,18.53-24.61,18.53-8.89,0-15.98-7.19-15.98-19.88,0-17,12.05-27.45,21.11-27.45l0.08,0.01a7.554,7.554,0,0,1,4.89,1.59,5.374,5.374,0,0,1,1.92,4.31,7.886,7.886,0,0,1-1.52,4.72c-0.19.3-.38,0.6-0.55,0.91a1.206,1.206,0,0,0-.11,1.18,1.841,1.841,0,0,0,1.59.67c2.16,0,5.42-3.12,5.46-7.83,0.04-4.92-4.11-9.99-11.52-9.99-11.2,0-26.29,12.3-26.29,32.23,0,14.1,8.85,23.85,20.83,23.85,8.51,0,16.92-6.09,24.37-16.25l0.46-.62,0.03,0.77c0.16,3.72.43,6.65,0.63,8.79,0.13,1.38.22,2.37,0.21,2.92a4.038,4.038,0,0,0,.6,2.55,2.535,2.535,0,0,0,2.08.76c1.67,0,2-1.14,2.67-3.95l0.19-.8c0.82-3.41,3.86-14.53,8.44-14.53a2.239,2.239,0,0,1,1.73.66c1.01,1.07.9,3.27,0.77,5.81a32.446,32.446,0,0,0,0,4.83c0.43,4.31,2.3,6.42,5.7,6.45,3.5,0,7.14-3.76,9.07-7.26l0.36-.66,0.14,0.74c0.36,1.87,1.95,8.01,6.92,8.01,4.51,0,8.38-4.74,12.62-14.51l0.56-1.27-0.04,1.39c-0.09,3.7-.29,8.22-0.29,11.71,0,2.7.27,3.73,1.52,3.73,0.09,0,.19.02,0.28,0.02a2.471,2.471,0,0,0,2.42-2.13c3.19-11.11,5.95-16.29,8.68-16.29,2.68,0.02,2.93,4.91,3.15,13.55l0.01,0.6c0.07,3.02.17,4.36,2.05,4.37,1.43,0,1.78-1.12,2.52-3.87,0.14-.53.29-1.1,0.47-1.72,2.58-8.93,4.71-12.58,7.37-12.58,2.28,0.02,2.41,2.37,2.45,3.14a32.859,32.859,0,0,1-.25,5.04,34.953,34.953,0,0,0-.25,4.65c0.14,3.49,2.05,5.43,5.39,5.45,4.33,0,8.24-5.06,11.66-15.04l0.24-.69,0.27,0.68c0.63,1.57,1.43,3.69,2.18,6.22l0.03,0.1-0.04.09c-3.31,7.36-5.65,15.55-5.69,19.93-0.04,5.76,2.57,9.51,6.66,9.54h0.07c2.22,0,7.4-.89,7.5-9.14,0.04-3.38-.76-8.16-2.38-14.21l-0.18-.7,0.6,0.4A12.321,12.321,0,0,0,1955.38,6606.47Zm-111.62-27.98c0.09-2.06.27-4.08,0.51-5.98,1.61-12.26,4.95-20.83,8.14-20.83h0.02c1.52,0.01,2.28,1.16,2.26,3.41-0.04,5.54-3.55,13.47-10.44,23.57l-0.53.79Zm101.72,44.1a2.5,2.5,0,0,1-2.1,1.01,2.714,2.714,0,0,1-2.3-1.05c-1.45-1.95-1.04-6.51,1.33-14.81,0.28-.99.59-1.98,0.92-2.96l0.27-.82,0.25,0.83C1946.61,6614.37,1947.16,6620.35,1945.48,6622.59Zm0.86-24.53-0.05-.09-0.1-.32,0.05-.09c3.15-6.5,6.77-10.22,9.92-10.22h0.03c3.55,0.03,6.01,3.22,5.97,7.76a7.126,7.126,0,0,1-2.48,5.71,7.324,7.324,0,0,1-4.66,1.67A11.416,11.416,0,0,1,1946.34,6598.06Zm9.82-10.45h0ZM1745.1,6605.4c4.87-.39,8.73-7.01,10.17-9.84l0.37-.73,0.14,0.81c0.68,3.98,2.85,10.66,9.62,10.71h0.06c2.93,0,6.25-1.79,9.61-5.18l0.25-.25,0.18,0.3c2.26,3.78,5.29,5.79,8.52,5.63,4.76-.25,7.64-3.62,7.9-5.96a1.951,1.951,0,0,0-.44-1.53,1,1,0,0,0-1.5-.1l-0.22.21c-1.1,1.06-3.17,3.04-5.41,3.16-2.76.13-4.79-1.51-6.11-4.9l-0.05-.15,0.09-.12c7.57-9.89,12.88-24.97,12.35-35.09-0.24-4.69-1.6-10.27-6.72-10.27-0.13,0-.25.01-0.38,0.01a7.559,7.559,0,0,0-5.3,2.78c-4.75,5.31-7.24,18.37-6.34,33.29a33.4,33.4,0,0,0,1.61,8.61l0.04,0.14-0.1.12c-2.8,3.28-5.57,5.08-7.8,5.08-5.35,0-5.16-8.95-4.74-16.39,0.09-1.6.23-2.62-.25-3.2a2.127,2.127,0,0,0-1.73-.62l-0.1-.01c-1.9,0-2.3.4-3.27,3.22-2.03,5.86-6.03,15.7-10.05,15.7a3.085,3.085,0,0,1-2.55-1.13c-1.95-2.49-.47-8.7.72-13.69,0.22-.89.42-1.75,0.6-2.55a3.065,3.065,0,0,0-.24-2.57,2.689,2.689,0,0,0-2.36-.64c-1.73.14-2.83,0.86-3.36,4.13l-0.11.68-0.4-.48a5.626,5.626,0,0,0-4.94-2.44c-0.24,0-.48.01-0.74,0.03-2.91.24-6.22,2.26-8.64,5.28a17.739,17.739,0,0,0-3.8,12.56c0.02,0.25.06,0.48,0.09,0.71l0.02,0.13-0.09.1c-1.69,1.84-3.41,2.77-5.12,2.77-2.63-.02-4.15-1.98-4.15-5.24,0-5.48,3.72-22.03,3.72-28.01,0-6.38-2.84-9.85-7.77-9.89h-0.08c-7.2,0-12.82,8.18-18.2,24.99-0.49,1.54-1.02,3.31-1.48,4.85l-0.76,2.53,0.23-2.63c0.5-5.86.84-11.55,1.02-16.93,0.26-8.13-.84-13.36-3.37-15.99a7.253,7.253,0,0,0-5.51-2.13h-0.07c-8.82,0-13.04,14.86-16.12,25.34-0.93,3.17-2.76,10.31-3.98,15.19l0.73-1.18c0.54-6.14,2.11-21.54,2.01-29.89-0.11-8.96-3.1-12.98-9.69-13.03h-0.08a10.185,10.185,0,0,0-7.38,3.21,12.793,12.793,0,0,0-3.65,8.76c0.05,1.81,1.16,3.41,2,3.41a1.4,1.4,0,0,0,.98-1.16c2.04-6.73,4.68-10,8.06-10a4.172,4.172,0,0,1,3.23,1.26c2.65,2.84,2.17,10.49,1.29,24.38-0.28,4.48-.6,9.55-0.87,15.32-0.04.99-.1,1.95-0.16,2.86-0.26,4.01-.46,7.17,1.06,7.41a3.223,3.223,0,0,0,3.93-2.45c0.97-2.91,3.17-10.85,7.41-25.35,4.07-13.92,7.15-18.99,11.08-18.99,4.55,0,4.89,7.8,4.05,24.26-0.17,3.49-.41,7.44-0.59,11.74-0.03.61-.06,1.19-0.09,1.76-0.17,3.56-.31,6.37.71,7.45a1.741,1.741,0,0,0,1.32.5c1.97,0,2.56-1.73,3.54-4.59,0.18-.5.36-1.04,0.57-1.61,6.75-18.61,11.74-34.76,18.45-34.76,2.01,0,3.57,1.63,3.57,4.81,0,7.35-3.59,21.54-3.59,28.73a9.914,9.914,0,0,0,2.14,6.52,7.537,7.537,0,0,0,5.83,2.58h0.05c2.24,0,4.58-1.09,6.95-3.23l0.22-.21,0.18,0.24a7.605,7.605,0,0,0,6.79,3.01c4.16-.32,7.66-4.03,8.96-7.52l0.25-.68,0.26,0.68C1738.54,6602.63,1740.63,6605.76,1745.1,6605.4Zm38.38-48.64h0.07a1.524,1.524,0,0,1,1.24.71c1.66,2.23,1.68,10.39-1.16,19.67a66.291,66.291,0,0,1-6.33,14.48l-0.4.67-0.1-.77c-0.29-2.25-.44-4.58-0.54-6.57C1775.53,6570.92,1779.78,6556.95,1783.48,6556.76Zm-46.22,32.78c-1.46,5.86-4.25,12.93-9.29,13.34-0.14.01-.28,0.01-0.41,0.01-2.09,0-3.27-1.36-3.49-4.06a14.041,14.041,0,0,1,3.71-10.08,7.355,7.355,0,0,1,5.12-2.71h0.03c2.14,0.02,3.63,1.73,4.32,3.32l0.03,0.09Zm115.15-37.59h0Zm-91.77,16.1a3.291,3.291,0,1,0-.05,6.58l0.02,0.27h0v-0.27A3.29,3.29,0,1,0,1760.64,6568.05Zm116.98,0a3.291,3.291,0,1,0-.05,6.58l0.02,0.27h0v-0.27A3.29,3.29,0,1,0,1877.62,6568.05Zm91.09,34.71a2.28,2.28,0,1,0,2.29,2.28A2.285,2.285,0,0,0,1968.71,6602.76Zm0,4.23a1.95,1.95,0,1,1,1.96-1.95A1.946,1.946,0,0,1,1968.71,6606.99Zm1.02-2.55a0.681,0.681,0,0,0-.83-0.73h-1.01v2.64h0.33v-1.16h0.47l0.79,1.16h0.37l-0.79-1.16A0.71,0.71,0,0,0,1969.73,6604.44Zm-1.09.46h-0.42v-0.89h0.59a0.492,0.492,0,0,1,.59.43C1969.4,6604.88,1969,6604.9,1968.64,6604.9Z" transform="translate(-1640 -6547)"/>
</svg>
