<?xml version="1.0" encoding="UTF-8"?>
<svg width="38px" height="30px" viewBox="0 0 38 30" version="1.1" xmlns="http://www.w3.org/2000/svg" xmlns:xlink="http://www.w3.org/1999/xlink">
    <!-- Generator: sketchtool 50.2 (55047) - http://www.bohemiancoding.com/sketch -->
    <title>177C15FC-0C53-4BCA-BF02-A00B7B7B18F3</title>
    <desc>Created with sketchtool.</desc>
    <defs>
        <path d="M10.8036455,9.92530635 C8.64231128,7.52056141 5.42631251,7.10368419 2.72204446,8.80815754 C-0.508515756,10.8412041 -0.947439262,15.5849793 1.85667868,18.1560644 C3.15021658,19.4781813 5.0040699,20.1133877 6.84917354,19.8666985 C8.47524237,19.7167876 9.96176691,18.8965391 10.9430193,17.6077579 C11.2612909,17.1970415 11.5254771,16.6569493 12.2202659,16.9136471 C12.2720216,16.8976824 12.3248505,16.8853304 12.3783616,16.8766826 C12.6675103,16.8623075 13.0232255,16.9506116 13.2291659,16.8150752 C13.4351063,16.6795387 13.2666096,16.2811437 13.3290158,16.0080173 C13.3435773,15.9464098 13.4080637,15.8950703 13.4496678,15.8396235 C13.3990737,15.7478914 13.3592905,15.6507398 13.331096,15.5500684 C13.2728503,14.829261 13.2770107,14.829261 13.996762,14.8272074 C14.814283,14.8272074 15.6318041,14.8169395 16.4514053,14.8272074 C16.7322332,14.8272074 17.0338631,14.7327426 17.2938888,14.9257794 L17.4831876,14.9093507 C18.2919421,14.7796978 19.1157758,14.7700075 19.9274299,14.8806006 C20.0938464,14.5479202 20.2602629,14.2131863 20.4245991,13.880506 C20.2351685,13.8147848 20.0321904,13.7964401 19.8338206,13.8271128 C17.8118602,13.8271128 15.7898998,13.8271128 13.7679393,13.8414879 C13.3831012,13.8414879 13.3061336,13.6997907 13.3186148,13.3671104 C13.331096,13.03443 13.2978127,12.8229111 13.7575383,12.8290718 C15.5610771,12.8516612 17.3646158,12.8290718 19.1660744,12.8290718 C20.6055771,12.8290718 22.0429996,12.808536 23.480422,12.7962145 L23.4492189,12.7530893 C22.9229268,12.036389 22.2635014,11.7591554 21.3190878,11.7899591 C18.8228404,11.8721024 16.3265929,11.8084414 13.8303455,11.8392451 C13.3477377,11.8392451 13.2166847,11.68728 13.2915721,11.264242 C13.3664595,10.8412041 13.1750806,10.7344178 12.8110445,10.8104003 C11.9248766,10.9972763 11.3777824,10.5639705 10.8036455,9.92530635 Z M32.2512278,14.7451406 C32.1825192,14.7625199 32.1105078,14.7717607 32.0363101,14.7717607 C31.5595307,14.7717607 31.1730245,14.3902014 31.1730245,13.919524 C31.1730245,13.4488467 31.5595307,13.0672874 32.0363101,13.0672874 C32.4144664,13.0672874 32.7358333,13.3073197 32.852604,13.6414692 L37.5967013,13.6414692 C37.703184,13.621619 37.8057376,13.7335559 37.8617996,13.930823 C37.9178617,14.1280902 37.9178617,14.3770118 37.8617996,14.5742789 C37.8057376,14.7715461 37.703184,14.8834829 37.5967013,14.8636328 L32.4440305,14.8636328 C32.3740356,14.876681 32.3057383,14.8327853 32.2512278,14.7451406 Z M33.2042726,18.3413136 C33.2700068,18.4615736 33.3073161,18.5992068 33.3073161,18.7454426 C33.3073161,19.2161199 32.92081,19.5976792 32.4440305,19.5976792 C31.9672511,19.5976792 31.5807449,19.2161199 31.5807449,18.7454426 C31.5807449,18.2747652 31.9672511,17.8932059 32.4440305,17.8932059 C32.5668391,17.8932059 32.6836582,17.9185213 32.7894255,17.9641543 L34.4306274,16.1846254 C34.4837872,16.1269557 34.5559088,16.0964704 34.6290682,16.0940031 C35.1982845,15.6198902 35.5486427,15.6198902 36.090632,15.6198902 L36.1227521,15.6198902 C36.1335976,15.6185251 36.1445426,15.6185079 36.1555411,15.6198902 L36.1634392,15.6198902 C36.1668638,15.6202316 36.1702699,15.6206428 36.1736563,15.6211226 L37.5967013,15.6211226 C37.703184,15.6012724 37.8057376,15.7132093 37.8617996,15.9104764 C37.9178617,16.1077435 37.9178617,16.3566652 37.8617996,16.5539323 C37.8057376,16.7511995 37.703184,16.8631363 37.5967013,16.8432862 L36.1634392,16.8432862 C36.0569564,16.8631363 35.9544028,16.7511995 35.8983408,16.5539323 C35.8739197,16.468001 35.8601366,16.3722678 35.8569916,16.2752725 C35.4657649,16.2849644 35.2491259,16.3478503 34.809225,16.7558802 C34.7593728,16.8034696 34.696979,16.8298531 34.6324074,16.8306482 C34.6208436,16.8306279 34.609402,16.8297927 34.598131,16.8281824 L33.2042726,18.3413136 Z M32.3759585,9.87529496 C32.2717124,9.91938019 32.1568987,9.94378859 32.0363101,9.94378859 C31.5595307,9.94378859 31.1730245,9.56222923 31.1730245,9.09155191 C31.1730245,8.62087459 31.5595307,8.23931523 32.0363101,8.23931523 C32.5130896,8.23931523 32.8995957,8.62087459 32.8995957,9.09155191 C32.8995957,9.24008295 32.861106,9.37973929 32.7934359,9.50133084 L34.4306274,11.2786171 C34.4380164,11.286718 34.4448599,11.2951684 34.4511496,11.3039176 C34.9214351,11.7290355 35.1316895,11.741548 35.6361867,11.7419163 C35.6711485,11.6980078 35.7109483,11.6697739 35.7536386,11.6618158 L37.5967013,11.6618158 C37.703184,11.6419656 37.8057376,11.7539025 37.8617996,11.9511696 C37.9178617,12.1484368 37.9178617,12.3973584 37.8617996,12.5946256 C37.8057376,12.7918927 37.703184,12.9038296 37.5967013,12.8839794 L35.7536386,12.8839794 C35.6289225,12.8607303 35.5288751,12.6644342 35.5020586,12.4098141 C34.9656199,12.4292228 34.4423984,12.2007949 34.0478695,11.7710545 C34.0034189,11.7223896 33.975291,11.6606293 33.9640826,11.5954148 L32.3759585,9.87529496 Z M4.1469857,11.849513 C4.83761416,11.8330844 5.29941993,12.1945149 5.72170179,12.6586245 C6.38174122,13.5072499 6.24390396,14.7192079 5.40967086,15.4022105 C4.63691727,16.0641842 3.48147357,16.03931 2.73868611,15.3447102 C2.11462425,14.7697071 1.86499951,13.8825595 2.1312659,13.206931 C2.44966124,12.3862665 3.25057919,11.8468775 4.14074508,11.8536202 L4.1469857,11.849513 Z M18.1155703,29.7957692 C17.5621969,29.785926 17.0193046,29.6450734 16.5325334,29.3850528 C13.0398672,27.6312934 10.414647,25.0971728 8.72967994,21.8504591 L10.2378294,21.08858 C11.7542997,24.0149349 14.1298952,26.3046792 17.3105305,27.8962056 C17.901309,28.1919214 18.3111097,28.2001357 18.8727653,27.9208485 C23.0851829,25.8303017 25.8248144,22.5651058 27.2476755,17.9363311 C27.9299831,15.7164086 27.9133414,13.4513073 27.8946196,11.0506695 C27.8946196,10.6810247 27.8946196,10.3093262 27.8946196,9.93762784 C27.8946196,9.50089933 27.8946196,9.06348628 27.8946196,8.62538871 C27.8946196,7.56574022 27.8821383,6.46912724 27.9112612,5.38688934 C27.9171163,5.31375893 27.9171163,5.24028643 27.9112612,5.16715603 C27.8394324,5.14458802 27.7656034,5.12877354 27.6907594,5.11992363 C24.1814515,4.63733178 21.0340996,3.51402223 18.365195,1.7828523 C18.1571744,1.65347661 18.1322119,1.63294079 17.8597049,1.80749529 C15.1762389,3.52634372 12.0351276,4.64349252 8.52789994,5.12608438 C8.46823445,5.13379395 8.40916191,5.14545724 8.35108241,5.16099528 C8.34666437,5.22389629 8.34666437,5.28702384 8.35108241,5.34992486 C8.35108241,5.7750164 8.36564386,6.19805437 8.36564386,6.62314592 L6.67443622,6.62314592 C6.67443622,6.21242945 6.67443622,5.79144506 6.65987478,5.37456784 C6.63699251,4.25947262 7.19032736,3.61670135 8.30323767,3.46473625 C11.6107655,3.00884097 14.4377657,2.0046392 16.9464944,0.398737793 C17.7640154,-0.124925708 18.5128897,-0.133140037 19.2992076,0.376148387 C21.795455,1.99437128 24.6266157,3.00268022 27.9341435,3.45652192 C29.099059,3.61670135 29.6503136,4.25947262 29.6191105,5.41974666 C29.5920678,6.47734157 29.5962282,7.55957947 29.6024689,8.60485289 C29.6024689,9.0463731 29.6024689,9.48583972 29.6024689,9.92735993 C29.6024689,10.2949512 29.6024689,10.6625424 29.6024689,11.0301337 C29.6191105,13.4472001 29.6378324,15.9484634 28.8806373,18.4107086 C27.3371243,23.4296639 24.2313765,27.1281657 19.646602,29.403535 C19.1756002,29.6538346 18.6504269,29.7883785 18.1155703,29.7957692 Z M24.4227554,13.7018443 C24.6162146,13.8542328 24.4706002,13.9523459 24.3707503,14.042109 C24.0774412,14.3343609 23.7778915,14.6224378 23.4825022,14.9126022 C22.9395684,14.7184635 22.3737523,14.870852 21.8183373,14.8270142 C21.5499907,14.8040515 21.2774837,14.7957015 21.0070569,14.7810889 C20.8475744,14.4777035 20.6880919,14.1743182 20.5286095,13.8709329 C21.6165573,13.7435946 22.7107458,13.8500578 23.7986936,13.810395 C24.0067142,13.802045 24.2376171,13.8751079 24.4227554,13.7018443 Z M5.53363218,12.751314 C5.15859822,12.3329495 4.73668501,12.0108459 4.11412864,12.021953 C3.3098065,12.0170358 2.58727474,12.5065881 2.3027146,13.2492788 C2.06269286,13.8583138 2.28958841,14.6580193 2.85026418,15.1763469 C2.5014826,14.0230679 2.74525467,13.2344694 3.60033211,12.7346535 C4.2528912,12.3644194 4.89794962,12.4699361 5.53363218,12.751314 Z M24.1792144,13.6110509 C24.0006349,13.756202 23.7799186,13.6978079 23.5752544,13.7011447 C22.5258489,13.7328443 21.4704238,13.6477558 20.4210182,13.7495284 C20.3936096,13.7644892 20.3581338,13.7644892 20.3307252,13.7495284 C20.1480055,13.6961341 19.9522182,13.6812303 19.7608759,13.7061499 C17.8105466,13.7061499 15.8602174,13.6994763 13.9098881,13.7178287 C13.5386835,13.7211655 13.466449,13.5826881 13.4764816,13.3324276 C13.4865142,13.0821672 13.4564165,12.895306 13.8998556,12.895306 C15.6374946,12.9119901 17.3771401,12.895306 19.1167857,12.895306 C20.5052917,12.8919692 21.8917912,12.878622 23.2782907,12.8686116 L24.1792144,13.6110509 Z M21.8141769,14.9688768 C22.3695919,15.0150272 22.935408,14.8545994 23.4845825,15.0589801 C23.2661608,15.2941277 23.0581402,15.5424611 22.8501196,15.7622252 C22.2967847,16.3446001 21.5791136,16.2259275 21.2337994,15.4897177 C21.1464307,15.3051159 21.0798641,15.1095258 21.0028965,14.9205287 C21.2733233,14.9359122 21.5458303,14.9447027 21.8141769,14.9688768 Z M16.2862881,14.944619 C16.5430253,14.9515842 16.8127854,14.8354976 17.0434768,15.0583839 C16.9276963,15.2289463 16.8034227,15.390239 16.6713939,15.5413041 C16.4574463,15.7665122 16.3458214,16.1426328 15.9737385,16.1310241 C15.1793415,16.0985199 14.3812238,16.0985199 13.5849664,16.0985199 C13.5449531,15.9909479 13.5149895,15.8779882 13.4956665,15.7618687 C13.4435749,14.944619 13.4472957,14.944619 14.0909991,14.944619 C14.822142,14.944619 15.5532848,14.9306886 16.2862881,14.944619 Z M19.9336705,15.0030964 C19.8920664,15.1075518 19.8567029,15.2164522 19.8088581,15.3209076 C19.3720148,16.2854537 18.7333915,16.3943541 18.0073996,15.6187168 C17.830582,15.4275856 17.6620853,15.2297869 17.4894282,15.0342108 C18.2981827,14.893896 19.1220164,14.8834088 19.9336705,15.0030964 Z M12.2077847,17.1275799 C11.5129958,16.8708821 11.2488096,17.4191886 10.9305381,17.8216907 C9.94928567,19.1104719 8.46276113,19.9307204 6.83669231,20.0806313 C4.99158866,20.3273205 3.13773535,19.6921141 1.84419745,18.3699972 C2.49322178,19.3618775 3.46467807,19.9389341 4.54846549,20.3250076 C7.57932592,21.3887633 11.0428692,19.9368806 12.2077847,17.1275799 Z" id="path-1"></path>
    </defs>
    <g id="Internal-/-Dashboard" stroke="none" stroke-width="1" fill="none" fill-rule="evenodd">
        <g id="Current-Dashboard-Dropdown" transform="translate(-780.000000, -194.000000)">
            <g id="Main-Navigation" transform="translate(0.000000, 69.000000)">
                <g id="Training" transform="translate(174.000000, 0.000000)">
                    <g id="Drodown" transform="translate(0.000000, 85.000000)">
                        <g id="Categories" transform="translate(0.000000, 33.000000)">
                            <g id="Security-Cat" transform="translate(596.000000, 0.000000)">
                                <g id="Icon-/-Category-/-Security" transform="translate(8.000000, 0.000000)">
                                    <g id="Library" transform="translate(2.086538, 7.010769)">
                                        <mask id="mask-2" fill="white">
                                            <use xlink:href="#path-1"></use>
                                        </mask>
                                        <use id="Mask" fill="#FFFFFF" fill-rule="nonzero" xlink:href="#path-1"></use>
                                        <g id="🎨-Colors-/-White" mask="url(#mask-2)" fill="#FFFFFF">
                                            <g transform="translate(-1.722902, -7.010769)" id="Rectangle">
                                                <rect x="0" y="0" width="41.1288831" height="42.1320266"></rect>
                                            </g>
                                        </g>
                                    </g>
                                </g>
                            </g>
                        </g>
                    </g>
                </g>
            </g>
        </g>
    </g>
</svg>